v 4.70658159 44.83926773 7.66563797
v 7.18432808 43.41644669 9.30272388
v 7.06306458 41.45787811 12.12790966
v 5.29121208 50.52926636 21.14032555
v 7.84231138 48.78630066 19.59809113
v 8.92114353 46.25571060 21.34008217
v 10.47141933 49.50179672 31.87596130
v 10.97935772 51.18587112 29.90185547
v 7.28913593 50.06153870 34.07024384
v 7.25960922 51.55162048 32.26259613
v 8.35278511 48.14244080 33.52387619
v 11.84675503 49.97311401 24.35107994
v 11.74574852 47.48724747 23.09925079
v 10.97979164 46.97660828 30.28569031
v 10.77625656 45.94757080 23.98282433
v 7.81247568 44.62502289 29.48867798
v 3.00481963 40.46774673 15.84766102
v 3.17557120 37.08069992 11.54413509
v 4.84429693 37.03646469 10.63523006
v 6.62940407 38.38701248 9.39400768
v 7.13791943 46.58438873 33.09398270
v 6.52668858 44.73650360 30.78378487
v 5.34002256 43.51621246 23.88684464
v 7.39352989 44.08699799 23.64409447
v 13.28971958 47.02080536 28.83570480
v 13.88357925 48.58288956 29.54278755
v 13.77615070 50.31865311 27.17261505
v 6.36271477 52.44707489 29.04058838
v 11.41611099 -35.43011093 -16.74992371
v 11.78820705 -37.19153214 -16.38682938
v 11.31374550 -37.67070770 -15.23960495
v 11.68884754 -38.64736557 -13.77891541
v 10.79593277 -34.57244873 -12.82982349
v 11.32431221 -35.18268585 -15.31255436
v 6.57522869 -46.30416489 -25.64530373
v 3.91546178 -45.85147476 -26.58503914
v 7.40325022 -45.16095734 -25.07434082
v 9.35582542 -42.79160309 -22.97473526
v 7.54895496 -40.69182587 -25.06515884
v 3.38990688 -40.86269760 -26.82372665
v 10.89279175 -44.25404358 -21.02550507
v 10.40208340 -47.10592651 -21.70097923
v 10.55019093 -47.63482666 -18.97491074
v 9.64211082 -47.58080292 -22.61361122
v 6.65774298 -51.68289566 -20.54191399
v 8.09548283 -49.73917770 -22.76443100
v 6.23326159 -51.69580078 -18.20139313
v 10.45112705 -40.93607330 -22.30235481
v 3.95159960 -47.63846970 -25.40585899
v 5.99953604 -46.41774750 -24.77304459
v 4.75152397 -45.33321762 -22.94528961
v 8.88473511 -47.06537628 -22.95578194
v 5.77311516 -44.19436264 -23.58362389
v 8.71794701 -50.34170532 -20.52831078
v 5.39375019 -52.10069275 -16.57443047
v 10.77725506 -44.40620422 -14.47698498
v 11.30249310 -45.50295258 -17.52817726
v 7.60792494 -48.81699371 -14.80179596
v 9.32705593 -48.72160721 -16.17499733
v 6.47223663 -35.27486801 -25.24923134
v 1.97947907 -37.46283340 -26.97680092
v 3.54284215 -37.33586121 -8.25022984
v 4.15264559 -36.84446335 -7.45123339
v 2.87668729 -34.76989365 -7.77915573
v 4.46479464 -35.43472290 -7.36987162
v 9.91448212 -35.00679016 -22.21932793
v 11.49154949 -33.17311096 -22.12448883
v 11.10050488 -31.80214691 -20.97666359
v 11.27156067 -30.58635902 -21.95192146
v 9.84341812 -30.45508766 -22.18244553
v 8.46536827 -30.38762856 -22.22637939
v 9.51965714 -32.89071655 -7.29251289
v 10.98458099 -32.92148972 -7.20903349
v 8.81376076 -32.17988586 -9.65106010
v 7.23898268 -32.79579544 -9.30117893
v 11.76086235 -32.22410583 -24.11729431
v 12.52656841 -32.18252945 -23.52055168
v 10.41731834 -34.15305710 -22.48798561
v 9.51934147 -33.58947754 -23.43556976
v 9.77752876 -41.15786743 -11.35982132
v 12.47467041 -30.80079460 -23.85470009
v 11.67665672 -30.30384445 -23.71298981
v 10.99195671 -31.09465790 -24.04118729
v 11.28841019 -40.90563583 -19.54328346
v 11.64790154 -41.67560196 -15.26715279
v 7.95328426 -49.99307632 -16.32350540
v 8.53299141 -48.63724518 -15.82312107
v -0.45453542 16.31672287 -20.57216263
v -0.05670986 24.12005043 -16.41170311
v 4.50788116 4.85115099 -23.30960464
v -0.49980676 7.20238304 -24.03627586
v 3.28669286 -7.78912354 -25.70785141
v -2.79917574 -2.36023879 -26.15472031
v 7.42418528 -13.27350330 -24.39739418
v 3.20632529 -13.31146908 -25.92601967
v -1.74318862 -11.58065510 -26.68139076
v 7.86299133 -19.11349106 -23.11793709
v 4.70127583 -21.84150505 -23.75735855
v 0.40454277 -21.64688301 -25.11156273
v 10.83130074 -23.47722244 -18.57101250
v 7.28791142 -24.12147331 -22.07776070
v 15.58340454 -19.04022217 -10.69572353
v 16.62201118 -18.60607147 -11.36205864
v 16.17341614 -18.17116928 -9.83665085
v 10.46729946 -25.83866119 -17.91049576
v 11.66114426 -24.43060875 -15.63277817
v 11.87320805 -25.68732071 -16.34039879
v 12.47901535 -24.91507912 -16.68430138
v 1.70134270 30.53293419 -12.07661152
v 6.40800333 26.44445038 -12.94007301
v 11.29202271 22.54441452 -10.02958584
v 9.35200310 28.78648567 -6.77063704
v 10.18988323 25.93362427 -7.43999386
v 9.42492962 28.37195778 -6.35367012
v 5.68447876 5.62502098 7.08888197
v 5.13661861 8.33646679 8.59303188
v 3.47512078 10.76696205 7.27747822
v 2.01655746 10.75711918 7.21239233
v 4.31547403 10.13605595 8.27253628
v 1.97863650 7.85056257 8.49190903
v 2.54172206 6.06619978 8.33061218
v 3.76732445 7.30557251 9.21124744
v 2.32898760 15.49512672 5.70500612
v 2.23804355 18.77250290 4.84999418
v 3.67922211 18.26366997 5.42799282
v 4.26831913 17.89282608 4.64272976
v 9.25461483 15.79012108 2.18779993
v 7.76737547 20.20796394 1.20979881
v 7.37000465 17.17048836 3.06835032
v 9.07114506 17.15407181 2.18572307
v 9.63761330 10.63745689 4.07156992
v 11.04198456 9.55306435 4.32237911
v 9.25939751 7.17378807 5.27635860
v 10.86941433 6.87247467 5.03468037
v 12.23322773 7.48302269 2.84449577
v 11.69643116 7.87131119 4.41197538
v 17.30049324 -3.68544936 -1.61447489
v 18.49274445 -2.64337778 -0.11227351
v 16.31250191 -2.77341151 0.24765868
v 17.94114304 0.12006244 -2.97693515
v 15.83787346 -0.90614003 0.74655044
v 13.16858101 -2.68119526 2.53769040
v 12.61384106 -2.35213566 4.27255487
v 8.95928383 -2.44472694 5.59825277
v 10.40997887 -4.36592007 4.33610058
v 12.21410942 1.18625772 3.59576750
v 12.30967045 -0.60731447 4.56937981
v 11.18269539 -2.97380018 5.16055346
v 2.94277787 0.82943082 8.29973698
v 1.42264032 -2.42375469 8.47590065
v 3.49773884 -1.12802768 9.29277992
v 4.60179281 -0.37810689 8.89309502
v 2.52718759 -4.19167423 7.93096972
v 4.28448296 -3.50454521 8.45943069
v 5.44762087 -4.28841925 6.67334652
v 5.26047802 -2.08322144 8.64624596
v 16.04520416 -12.95545197 -5.47938204
v 17.87096214 -10.77445984 -3.47522616
v 15.54880047 -8.18033028 -1.87595713
v 17.00323868 -10.64732933 -1.52713311
v 16.47282791 -8.54792118 -2.59511399
v 17.84706497 -9.76727009 -2.42436028
v 14.27745533 -12.33100796 -2.35056567
v 17.36698151 -12.06777096 -2.48018432
v 10.73976326 -8.90683937 2.84875631
v 11.34140301 -10.46675396 2.79464698
v 10.32712650 -13.52305889 0.93691140
v 10.24243069 -13.00034618 2.41403866
v 12.19036293 -9.79420567 1.28778505
v 8.84642982 -10.21949196 3.51259351
v 9.96938324 -11.12297726 3.56268311
v 1.50461888 -8.88212967 6.79148149
v 1.62682068 -13.99697876 5.06382132
v 3.07167077 -13.07216358 6.42268276
v 4.17290735 -12.36869621 6.28228140
v 0.62666082 -12.23853779 6.12284327
v 2.12814140 -11.94080544 7.05975056
v 14.40796566 -19.19647789 -8.55640316
v 15.27948093 -19.67571068 -6.75813389
v 13.72554398 -20.66749191 -8.47459698
v 11.98034477 -20.22955894 -5.62645721
v 13.15466976 -21.11521530 -7.94395733
v 14.91492176 -21.23915291 -5.99570608
v 15.23508072 -17.01276970 -7.42549515
v 10.36258411 -19.08759880 -1.71303356
v 7.37979841 -19.70351601 -0.19434589
v 7.93962574 -17.29338837 0.17968799
v 6.67960644 -22.12028313 -3.11148596
v 8.78893185 -21.52944946 -1.12894917
v 6.06138134 -20.49415016 -1.42549717
v 2.58777428 -18.77692986 2.33409262
v 2.15631509 -19.86267090 2.79372525
v 4.15643740 -18.60765648 1.24983609
v 3.21490574 -21.90876961 -1.17493546
v 10.62006378 -25.74528694 -10.12552261
v 11.11642742 -23.40055847 -9.01249123
v 8.69319344 -26.16034889 -4.93736887
v 8.99409866 -25.94131851 -6.32607555
v 8.75025177 -24.90974045 -5.53320980
v 8.16026306 -25.29993057 -4.56782579
v 10.23960686 -24.22072220 -8.81665707
v 12.36109352 -25.55117798 -9.29079247
v 5.71900463 23.85804939 2.50523305
v 2.20387340 24.47078133 4.68178129
v 1.84551573 22.91858673 4.67766762
v 9.32315350 24.30838013 -1.97554266
v 9.88416481 25.32198334 -1.72179508
v 15.16124344 -18.95912361 -11.90458107
v 16.82686806 -16.66793823 -10.76249218
v 17.17958832 -17.61685944 -10.01282787
v 16.65545082 -16.85198212 -12.00463009
v 15.43855667 -17.92392540 -9.63250923
v 19.14825630 -10.35770607 -10.91653347
v 18.90089226 -8.96557617 -10.89098549
v 20.57406998 -10.81943893 -10.01877880
v 20.14935875 -10.41617298 -8.20179939
v 17.69457245 -12.67376804 -9.03667927
v 18.57331657 -8.16460705 -8.97951221
v 20.54099846 -9.70955276 -8.94480801
v 14.40389633 17.04025269 -5.39418793
v 18.05118561 14.04958725 -5.82909584
v 19.43441010 1.97371936 -11.11848164
v 16.97374725 9.58552647 -3.86350322
v 11.68434238 19.93737030 -3.40888476
v 16.10420990 17.71758842 -7.68549967
v 19.67248535 11.76899815 -5.94060946
v 11.93891907 -23.14260101 -15.20529747
v 12.02949619 -22.20859909 -20.12277985
v 13.87388992 -22.42068481 -17.86202240
v 14.18929577 -20.68881035 -13.24253082
v 15.44039154 -20.95182991 -16.20528412
v 16.97255898 -16.11263275 -13.54315472
v 10.80946922 -13.77238369 -22.98600006
v 16.63103485 -5.40925026 -18.06584358
v 15.18384743 -9.05744457 -20.45229530
v 16.94550705 -10.74013138 -18.77937889
v 17.66198540 -12.41828251 -17.85767555
v 18.69907951 -8.95341206 -15.33684540
v 18.55319214 -11.83009624 -14.31729603
v 19.27041626 -9.87093258 -14.15175629
v 18.40406990 -11.47405624 -15.94745445
v 9.36339855 16.58226395 -17.59498978
v 13.57377052 11.51144600 -17.36015511
v 10.09379482 22.94887352 -12.05162334
v 14.02280235 19.09266472 -9.54131699
v 11.72226143 21.47609901 -6.27737379
v 10.25491810 7.52065229 -20.58969879
v 14.07032108 15.45918846 -2.76914907
v 13.40041351 16.57645798 -1.50089478
v 13.63437366 18.03859329 -2.20698333
v 11.39119720 17.66754341 -1.04249454
v 11.98616600 19.03137589 -1.56841946
v 16.55201340 10.08021832 -2.39421511
v 15.53180695 11.39366913 -1.77577603
v 16.95124817 10.17033863 -0.05713733
v 20.08489990 -2.68502617 -9.21087837
v 21.81018448 -2.25028896 -7.98046446
v 19.56235695 -1.56546390 -5.86775923
v 18.83948517 -2.89619732 -6.06387568
v 19.66431046 -3.56555319 -7.67713642
v 21.61454964 -2.55022025 -6.92678118
v 19.49586678 0.91334140 -7.98407841
v 19.07727623 0.89700991 -6.00972033
v 21.65137863 -0.58856708 -7.68332434
v 19.81492996 -3.43103528 -13.15102673
v 19.50602341 -1.44078457 -15.13690090
v 17.72004700 -0.17883718 -17.36869240
v 12.60134888 -1.98923635 -20.98730469
v 15.24378967 2.12753582 -19.52982521
v 16.27723885 0.43940443 -18.78538322
v 16.47883224 5.83967113 -0.28245452
v 17.13676071 5.50267935 -2.12621927
v 17.53699684 7.01488352 0.32744688
v 14.79083824 9.63144302 0.68163246
v 16.24092865 8.38420391 1.17049885
v 17.96897697 12.31485271 -23.20765114
v 15.57745075 8.51912880 -20.63750458
v 24.47977448 12.59157848 -29.02236366
v 23.14278030 13.57619667 -26.57045555
v 21.68509865 13.93997669 -27.72678947
v 22.00649452 13.37729454 -23.97582054
v 24.79944038 6.15909719 -28.71355057
v 25.36191559 6.71684551 -29.74792480
v 23.48857307 4.95842695 -24.97779083
v 20.39785576 4.83805704 -28.30948257
v 18.29269981 12.61668205 -27.63034630
v 16.52372932 8.77538395 -26.16976547
v 25.64600945 10.63281250 -28.13266754
v 17.25905991 7.13847876 -28.79919815
v 20.25023079 13.93502903 -26.53433609
v 19.86577034 13.51049519 -23.90769005
v 18.88212013 12.21628189 -32.97614670
v 17.32647896 7.00712729 -33.95119476
v 21.45000267 3.91958737 -32.05266953
v 25.74000740 8.33071423 -33.87285995
v 25.52255630 10.40959740 -33.11028290
v 24.22265053 12.05575085 -32.94107819
v 18.06271744 11.01887989 -33.57696915
v 19.13960838 3.75160170 -33.47048950
v 24.02964783 7.57999229 -17.66351509
v 23.15429497 10.55918789 -18.85661507
v 19.68783379 1.37488985 -19.42542076
v 20.86897278 1.22173893 -17.53066826
v 23.27687454 3.22128344 -19.09532166
v 14.39648533 5.74996948 -19.53732491
v 14.56975365 8.28306866 -19.31420517
v 16.43016243 2.89850783 -20.22649765
v 19.08137512 12.40898991 -19.73498535
v 18.95382881 12.73085690 -17.07017326
v 22.02470016 11.22342873 -18.69032860
v 23.09987450 3.68853664 -14.81233406
v 16.63466072 17.43708229 -9.95475006
v 18.46100998 16.26103210 -8.54640102
v 20.20008087 8.56694031 -6.55448389
v 20.30002213 9.87527752 -6.23760509
v 18.71002388 9.58314705 -4.88322687
v 20.19305420 12.54418278 -7.11016035
v 20.95568275 12.55584240 -10.11642456
v 14.81830406 11.42558193 -17.38287163
v 15.72804832 16.34023094 -12.63141823
v 16.05004501 10.80663204 -19.14471436
v 21.21492195 12.81921768 -33.47845840
v 17.69415855 9.48886490 -34.19469070
v 23.47182655 9.73465252 -34.21415329
v 19.37018204 5.45271254 -7.56154680
v 18.88827515 0.12511955 -14.79337406
v 17.63863945 -7.46458435 -25.29566765
v 17.01263809 -7.87155819 -31.07951736
v 16.63891411 -7.07628632 -26.18901062
v 15.97701740 -8.03649902 -22.48764992
v 19.73479080 -14.73350716 -28.50790596
v 20.32316017 -13.57144070 -27.09936714
v 20.72442436 -11.75333786 -26.89401817
v 19.80507278 -12.73038006 -22.45151711
v 13.74772453 -15.22763538 -30.11490822
v 16.03945160 -16.59263420 -25.35281944
v 13.68401909 -8.91830730 -29.33984184
v 12.73262882 -11.85180855 -28.65139389
v 11.60030842 -12.16674423 -23.45832634
v 20.40835762 -10.32522774 -25.31153107
v 19.66039848 -10.31641960 -22.79816055
v 18.53866959 -16.05440712 -24.41702080
v 15.37652206 -7.29043293 -25.49330330
v 14.13764286 -8.32831764 -22.89854622
v 16.42398453 -8.19278145 -33.69420624
v 15.28715611 -8.23951817 -31.79015160
v 13.73408794 -9.34825134 -33.35653687
v 12.62744999 -14.02394962 -33.75756073
v 12.65375710 -14.45682144 -31.87670135
v 12.96534729 -16.40095901 -32.42961121
v 16.93537903 -16.57235146 -30.33940125
v 15.17576504 -17.09908676 -32.97644424
v 20.90349579 -13.85499573 -33.69371796
v 20.42522430 -10.38798618 -33.46148682
v 20.41525650 -10.14976215 -29.95477676
v 19.52377701 -9.50907898 -33.91765594
v 19.26487160 -8.54238224 -29.78332901
v 20.45921707 -14.95617771 -31.93891335
v 15.08297539 -20.10399055 -22.25022125
v 16.35850716 -19.32938576 -22.47908592
v 17.72885895 -17.69770622 -17.82892990
v 17.38221550 -19.20851707 -20.67479897
v 17.50438690 -20.57555771 -18.48920250
v 13.21379280 -18.56449890 -23.38238907
v 12.40524292 -10.31216621 -22.31253052
v 17.72157860 -20.17309570 -19.40891266
v 19.50625801 -15.07342339 -23.56709862
v 17.38920784 -9.77536488 -20.75644875
v 11.54556847 -15.60661888 -23.63657188
v 18.94346046 -16.67790222 -21.67801094
v 19.13779068 -12.19952869 -21.11784744
v 13.16417217 -10.67105961 -34.15467834
v 18.52017784 -16.60940933 -34.26087952
v 18.18576813 -10.42445087 -34.30014801
v 3.78779936 -29.35122490 -25.09670639
v 8.24654007 -27.70564461 -22.49518585
v 8.22049999 -29.37824249 -22.17634773
v 7.04814768 -26.80520058 -23.24429131
v 10.19597530 -27.25092316 -19.16482544
v 11.38525677 -27.53876686 -19.59644318
v 10.16553211 -28.54845619 -19.91247368
v 10.90270710 -28.37928963 -17.18073273
v 11.01057911 -27.65259171 -13.57073784
v 10.83440781 -29.21354294 -14.80311489
v 10.55203533 -29.10337448 -12.23300076
v 8.35150909 -28.53266335 -9.84089184
v 6.50465298 -29.27694702 -8.14773750
v 4.20986462 -31.14111137 -7.62715626
v 3.44455528 -29.80940628 -6.78143311
v 3.07514644 -30.48829079 -5.60008955
v 12.18946457 -28.39898682 -19.22200203
v 11.73571110 -37.97148895 -12.11943436
v 11.20094299 -35.42070389 -9.03766918
v 9.70581436 -36.28767776 -9.39282322
v 10.38777447 -31.22011375 -14.90471363
v 10.00990486 -30.45507622 -19.51573753
v 11.14071083 -35.27083969 -18.95583534
v 11.66580868 -37.55791473 -15.28447056
v 11.53050900 -36.67256927 -14.69447517
v 11.90005493 -36.35649109 -16.07821274
v 13.52855778 -17.06882286 -4.68436193
v 11.64958954 -16.26433563 -2.44068527
v 10.26749802 -22.20324707 -7.72127962
v 12.14534092 -21.66707802 -10.20442295
v 5.63859797 -14.74296951 2.64639258
v 9.02744007 -21.45439911 -4.13970423
v 10.55908203 -19.25943756 -3.82741070
v 0.59206903 -18.05375862 2.59562588
v -1.15169883 -15.98012447 4.00687981
v 0.05610551 -22.72675133 -1.63683784
v 4.47114038 -19.80132103 -0.26667595
v -0.29511294 -6.41075468 7.53380585
v 4.69582081 -10.63153267 5.28864193
v 2.52194142 -15.10984612 3.74610186
v 14.30415821 -4.99043179 0.33784744
v 7.75793171 -13.14126778 2.61483550
v 17.37110710 -7.00067663 -6.10020971
v 16.94087410 -9.34229469 -5.03945923
v 0.10995643 3.38537312 8.42588520
v 7.37529612 3.28921390 6.31196260
v 6.33856630 0.13956515 6.83626652
v 14.06087589 4.77643013 1.45826554
v 15.83446312 1.43126190 0.04664624
v 17.43924522 -3.72773623 -3.49679089
v 0.24940309 13.00319099 6.51123238
v 5.72872448 10.95049286 5.77994347
v 6.78226614 7.29594898 6.10754538
v 12.61721039 12.52576160 0.24604593
v 14.86976433 6.50127935 0.84689623
v 16.92529869 8.59695530 -2.21590114
v 4.88966465 20.54763412 3.15082049
v -0.34911856 20.37494278 4.58591032
v 6.68305254 26.31150436 1.39148903
v 0.67233694 -25.06171417 -3.25517344
v 3.24866486 -24.86416054 -4.08050013
v 0.81210369 -27.86830330 -5.05163717
v -1.22161949 -28.58665466 -5.87819481
v 3.54603577 -27.13929939 -5.90653801
v 5.34549904 -27.89075470 -7.96244144
v 3.58415580 -26.15018654 -4.77220392
v 0.02089330 -26.62678146 -3.84794855
v 6.12939310 -24.01602173 -5.04534388
v 8.60140514 -23.87650299 -6.96016836
v 7.22031307 -26.51590729 -7.78593540
v 9.26111698 -26.33355141 -10.75693035
v 8.63342285 -25.12528229 -7.49028158
v 11.70168495 -23.73490906 -12.07797050
v 10.82823372 -25.75371933 -11.97485065
v 10.21365166 -26.61861992 -13.96723080
v 12.26572418 -23.61398697 -10.53772831
v 1.81741941 -32.28779984 -7.14584970
v -0.55699676 -33.18169022 -7.21785879
v 5.49950695 -32.45842361 -8.91279030
v 1.04429650 -30.71707726 -6.41068888
v 7.35988426 -30.99696350 -8.91800499
v 8.59588242 -30.08094406 -10.44725037
v 9.66034126 -30.81415749 -12.03064442
v 5.07500553 -34.34712601 -8.71686459
v 5.90406513 -37.14995575 -9.37612629
v 6.66025019 35.25143051 -3.99384618
v 8.29264450 31.23229599 -0.47947344
v 1.95383072 26.51598930 4.71585798
v 2.70247555 37.88365555 -3.97929025
v 8.76558971 27.07616615 -1.60832345
v 8.62445068 26.31664085 -0.83206552
v 9.49801350 26.71183014 -1.66946304
v 6.63574600 24.55895996 1.98510718
v 1.82173932 34.54697037 -8.34409618
v 3.58960128 22.86701584 3.75197029
v 5.64638948 28.41509819 3.88896084
v 7.55939913 36.46664429 -0.85658586
v 8.10407352 31.06969452 1.97921574
v 6.15371752 29.68630791 3.65370178
v 8.40746975 30.12323761 0.43983766
v 3.46595788 24.59481621 3.93072510
v 7.35066032 23.87236214 0.80578601
v 9.55292130 26.41314507 -2.78274465
v 6.60602570 -41.48942184 -10.08831120
v 4.59014034 -42.39349365 -9.51666737
v 9.82142448 -39.78075027 -10.97821903
v 4.93201065 -47.38315582 -12.26856232
v 12.10508156 -41.76686096 -13.86117172
v 10.82644367 -33.82477951 -10.43269444
v 5.63231659 -40.28495407 -9.35552502
v 3.77254438 -36.25558090 -7.22585726
v 4.90424490 -35.99805450 -7.66301489
v 8.75454330 -30.36530685 -8.30213833
v 11.05601215 -30.03608894 -13.46720123
v 10.56233406 -29.50391006 -18.63249397
v 13.10860538 -24.55851555 -10.74481869
v 12.69708443 -25.80713081 -10.50291920
v 12.32621861 -29.14919662 -13.48510551
v 12.40759277 -28.83613396 -12.38490295
v 9.67769241 -19.78391647 -0.18107529
v 3.48695660 -11.13972378 7.06786060
v 4.72823191 -10.77370262 6.19771433
v 3.31940198 -2.63675570 9.03770256
v 5.55998802 -0.71105683 8.16315937
v 3.35561967 9.19619942 8.97200775
v 4.82676077 6.52134323 8.46137905
v 5.18288183 9.67308521 7.65166187
v 3.99767733 15.66917038 5.40830421
v 3.07608604 23.66569328 4.62102222
v 2.71615887 -27.34930229 -2.69993925
v 2.48964691 -27.99385262 -3.75402737
v 3.39587903 -27.22061539 -3.72427392
v 3.23494649 -26.29143524 -3.09671116
v 2.49866533 -26.27790070 -2.41582918
v 11.17305851 -11.88328648 2.57196927
v 9.62163544 -12.53490162 2.99146795
v 10.07900047 -0.10102709 5.53243971
v 11.78355885 -2.00733685 5.10599661
v 10.59974957 8.55598450 5.17371893
v 9.94831848 7.67130423 5.49850607
v 8.56275177 18.81425285 1.65708768
v 15.01550388 -19.60081291 -4.94341850
v 15.53018761 -19.29293060 -5.20576286
v 17.86623573 -10.87973595 -2.01813245
v 18.07678795 -0.52358323 0.51634234
v 18.92424965 -2.38223147 -1.18166304
v 18.85710716 -0.29958916 -0.40596461
v 17.73556328 8.53729343 -0.13497047
v 16.99654961 7.48954439 0.96180284
v 9.99954510 25.82161903 -1.97899199
v 18.95943069 -4.14084339 -11.13326645
v 17.80642509 -13.13523197 -11.34932899
v 18.18375778 -8.88368511 -7.68148422
v 18.34138298 -6.47440910 -8.87405777
v 19.60097122 -0.29646897 -9.79801083
v 20.12905121 -11.57157803 -9.73497868
v 20.82136726 -10.63004398 -8.71217728
v 21.49853516 -0.98402584 -6.22741508
v 22.02385712 -1.75366819 -7.08149958
v 9.95412445 -32.40097046 -10.14845753
v 8.25972366 -35.68449020 -8.84649944
v 3.80210114 -40.74235153 -9.16488552
v 12.11209869 -28.67540550 -18.50730515
v 10.34461975 -35.25006485 -7.40573454
v 11.85745525 -33.51925278 -8.06127357
v 18.58340073 -7.75234795 -13.99738789
v 18.83741760 -4.84116173 -14.89779472
v 20.05397606 -0.96168762 -12.86034393
v 20.12413216 -4.18434763 -14.47938728
v 4.56682396 41.29883957 1.03837204
v 2.62139034 41.57030869 0.21605380
v 6.38736582 33.41352844 5.31152725
v 5.56796265 33.77600479 6.81788492
v 5.35389709 32.27970505 6.01425266
v 5.65988588 32.55714798 6.04095554
v 2.51663876 30.47871017 6.63262415
v 10.98412323 -24.59131050 -18.16908836
v 17.38075256 -17.93680000 -10.57830429
v 9.87138081 27.45050049 -6.01837683
v 15.92609406 -16.54117584 -9.40211773
v 8.14670277 -27.27406693 -23.01509666
v 7.84199858 -26.75298119 -6.12671709
v 1.59307814 -20.58722115 2.36207533
v 2.21964002 -21.87985611 1.50078940
v 3.04992175 -20.94638252 2.05778623
v 18.94012642 -1.66809380 -0.12620239
v 18.06980324 -17.63575172 -33.78720093
v 17.67387009 -17.79483986 -33.00139618
v 16.08670998 -17.82447433 -32.68773651
v 15.90911007 -18.23660088 -33.95668411
v 20.60540390 -16.09400368 -32.58786392
v 19.20120811 -16.65740585 -32.58777618
v 12.18004513 -15.70736599 -33.12319565
v 14.43693924 -17.12807846 -34.03662109
v 13.69423676 -17.04590607 -32.87471008
v 20.87922859 2.83496571 -33.97392654
v 22.75791168 3.57984400 -33.14408112
v 21.28723335 3.01567888 -33.22861862
v 18.92590714 3.92821312 -34.21751022
v 17.20303535 6.31768274 -32.66541290
v 17.04250717 4.95897961 -33.78758240
v 25.70634079 5.65670681 -33.83168793
v 23.29157448 3.64886308 -34.18507004
v 16.78720856 -18.38094521 -34.19128799
v 16.96214867 -17.93495750 -32.68797302
v 12.38268471 -16.37639999 -34.07669830
v 20.69270325 -16.44917297 -33.67850113
v 25.14278221 4.28398991 -33.85489655
v 17.27171707 5.16092205 -33.00264740
v 1.11294019 -26.88740158 -2.46432996
v 7.25217438 -25.56492233 -4.56516695
v 13.22801399 -25.30640984 -9.62196445
v 15.58642960 -20.66205406 -5.75559759
v 8.80581570 -29.65733719 -7.78263664
v 9.27740288 -20.67475128 -0.37832412
v 19.46101570 -10.09708118 -15.07074165
v 19.53606796 -10.98442650 -15.31032753
v 12.27815247 -25.36290169 -17.98115540
v 20.90604591 -2.69364285 -14.26753807
v 7.58998203 -27.55662537 -23.71047401
v 3.44060159 -31.27760315 -5.69079828
v 2.08667064 -30.93656731 -5.59642982
v 2.70709777 -31.69167709 -5.59050512
v 14.37685680 48.73186874 26.57883263
v 13.02120781 47.28316879 24.26586533
v 14.31942844 48.55871964 28.28334236
v 13.86472702 49.09765244 24.73598480
v 13.83586788 49.90789795 29.24798965
v 8.99588966 -30.82097816 -22.89305496
v 9.31446362 -31.88315201 -23.54971313
v 18.42911720 -17.78409386 -22.35084724
v 19.49475479 -16.87096596 -23.15773010
v 1.04327285 45.24288940 8.43543434
v -0.70794654 43.37159348 13.72726250
v 0.84210408 47.30075073 16.43605042
v 1.62012613 49.01784515 21.57792282
v 0.88874948 46.15137482 22.78631592
v 3.45559931 49.28790283 33.24917603
v 0.93473500 50.30896378 31.91580200
v 4.30612993 51.14782715 32.57423401
v 3.36999297 51.63946533 30.42549515
v 1.69248247 50.20732880 24.45000839
v 5.76497173 49.85160065 34.36954498
v 5.60711622 47.98983765 34.02958298
v -1.15862381 48.90981293 25.56639671
v 3.44203663 46.10989761 32.33205032
v 0.65197778 46.31463623 31.02129745
v 0.17936380 45.46877670 25.80879593
v 5.18048573 44.67601395 30.84099007
v 1.11559629 39.06900787 12.96257210
v -0.15631139 41.83686829 14.51963425
v 2.99019098 43.81364822 22.79700089
v -0.05592611 46.26590347 24.75694466
v -1.12236655 45.85941696 29.69939995
v -1.56104696 47.76922226 31.60653687
v -0.78367001 49.95977020 29.40646744
v -2.10379553 49.24666977 28.77930641
v 3.41412616 51.77404785 28.17475510
v 4.00182438 51.14585495 23.30597115
v -9.94316387 -35.07533264 -17.43170357
v -6.45897102 -43.73856354 -17.15898514
v -7.39586020 -42.07059479 -18.38231468
v -8.47669983 -39.11831665 -16.73515892
v -7.90447950 -41.36561966 -16.67997169
v -6.16923523 -44.25715637 -14.73419285
v -7.24141932 -41.47023773 -14.58161259
v -8.00072956 -39.96044540 -14.59537411
v 1.69338191 -45.47909164 -26.38066673
v 1.18396699 -47.67616653 -25.56922150
v -0.35910940 -46.43649292 -25.31046486
v -2.71641970 -45.63505173 -23.15962219
v -1.60450435 -43.43439865 -25.31938362
v -3.39340639 -48.23928452 -20.54503441
v -0.55652773 -51.23799896 -21.57912827
v -2.04760289 -49.30562973 -22.35771561
v 2.56016016 -52.39365387 -20.97027206
v 3.96895385 -51.94561768 -22.74061203
v -4.51794291 -43.90710831 -22.92573166
v 1.68283570 -47.92301559 -25.18216705
v 0.09956574 -46.86356354 -24.74078560
v 1.18802190 -46.48440170 -24.28514481
v -0.39192876 -45.39912796 -23.15279388
v 1.47497892 -50.60958481 -23.15154266
v -0.31530520 -50.14022827 -22.94386292
v -1.77678645 -46.44729614 -22.82254219
v 0.25882944 -51.61269760 -22.39172173
v 0.24519597 -51.79945755 -18.52281189
v -1.35760391 -51.02578735 -17.02044487
v 3.36165500 -52.32700348 -17.10680008
v -2.86036801 -49.87011337 -18.70463943
v -4.05249548 -47.96935272 -15.46849155
v -3.20853710 -49.47101974 -18.14397049
v -0.49893948 -50.37252426 -15.62430954
v 0.85525864 -51.53600311 -16.64645386
v -2.82337284 -39.31865311 -25.55206680
v -0.32790932 -37.29901505 -7.99514723
v -1.63830078 -37.40003586 -7.28190136
v -2.60371900 -35.51302719 -8.26333046
v -2.46780562 -36.63697433 -7.56937551
v -2.79139280 -38.75082016 -9.31465530
v -5.79298496 -42.76951599 -21.53811073
v -5.81097078 -38.30307007 -23.90767860
v -9.14145947 -37.62289810 -22.11808014
v -10.73144245 -37.22857285 -23.25725937
v -9.99683285 -34.74786377 -21.82774162
v -10.61898136 -35.40689850 -24.01561546
v -6.99831486 -33.94221497 -23.47528458
v -8.17681122 -36.60065460 -7.48188210
v -5.91431856 -35.98005676 -8.89890099
v -8.41560364 -35.92863083 -9.10817623
v -9.17146206 -37.06752014 -24.10817146
v -7.28735209 -37.24626541 -23.59776688
v -8.81247139 -37.87477875 -23.15620232
v -5.71710920 -45.38999176 -18.22479820
v 2.16798282 -51.65343094 -16.06373405
v 3.80287719 -50.72750854 -14.64259052
v 0.38687661 -50.52310562 -15.76037788
v -5.70339584 26.41928291 -12.96021748
v -5.97337627 16.68788528 -19.59795189
v -3.06021690 8.01266670 -23.70573616
v -13.44656563 -5.68443775 -23.63695908
v -4.05890894 0.41465372 -25.67319489
v -10.50937843 -10.97243881 -24.64268684
v -4.42153311 -7.73244381 -26.53296661
v -6.57233906 -15.13770390 -25.40021133
v -8.52877903 -22.53303528 -23.06897354
v -2.76751328 -17.89706802 -25.65072060
v -2.17253184 -30.74712563 -25.90498734
v -13.50984478 -24.45275688 -17.85842133
v -10.66638565 -29.19051552 -20.06916237
v -8.15041351 -26.82375336 -22.86259460
v -19.25931549 -17.33155632 -9.71183586
v -19.65539742 -16.96920395 -10.83500099
v -13.59826088 -27.23509026 -16.22056389
v -14.69445896 -24.98511314 -15.57727146
v -14.99093723 -27.02016068 -16.51889992
v -12.74738312 -26.15140915 -18.45075417
v -13.05227089 -27.43168068 -18.16182137
v -14.68115807 -26.82000923 -17.76263618
v -1.39190602 32.13283157 -10.14249039
v -10.55853176 22.85320473 -11.92535591
v -7.98811531 29.27117157 -5.91327190
v -5.52190399 7.34856033 7.50211382
v -5.56670237 9.42902660 6.54914808
v -4.27321672 10.08619499 8.41448402
v -2.89680552 11.66604042 6.63415813
v -1.86241341 8.13341904 8.47123337
v -2.34361100 6.38411474 8.43408108
v -1.82923687 19.09223938 4.84611368
v -1.93957508 18.39825821 5.65723991
v -0.94844002 18.32942963 5.23487806
v -3.06903768 17.01878548 5.71510124
v -1.07320416 16.04940414 5.70887423
v -6.53650951 19.98263359 2.32954383
v -8.59633350 17.83434105 1.91755784
v -10.74196148 11.90609646 3.66111970
v -9.18617439 8.14761066 5.45953703
v -12.23362064 8.44602108 3.20048475
v -18.92801476 -1.48401690 -1.91698349
v -16.83717728 -1.13666248 0.27556744
v -20.22908592 -0.45936298 -1.07749927
v -19.46959496 2.41774464 -3.21140885
v -20.61469841 1.31987214 -1.34994161
v -19.64352226 0.19774254 0.22162434
v -13.81377697 -1.47185910 2.76049495
v -10.03501892 -2.10417724 5.52611399
v -13.16197681 1.90252793 3.79939151
v -12.17514706 -1.65537620 5.27453852
v -2.15759134 -0.09113829 8.83948040
v -1.19320893 -1.86042547 8.38837814
v -4.69702387 1.87474930 7.78770494
v -2.89046383 -3.69541550 8.28198910
v -5.90373039 -3.38487935 7.09468794
v -6.88463926 -0.23255810 6.82667923
v -18.56023216 -10.95287991 -4.69597435
v -17.22978401 -6.05097151 -1.47553968
v -19.07282257 -4.98513269 -4.10954571
v -19.84996223 -7.82999849 -2.45011497
v -16.81969643 -10.89037037 -2.05318165
v -12.64411449 -12.23023701 1.55830193
v -11.87480736 -11.68441772 3.01542878
v -13.87646008 -9.88331223 1.02702522
v -10.54343510 -8.83703709 4.01687908
v -9.46710110 -10.54328442 3.81571984
v -5.76199961 -7.60486555 6.25346613
v -2.23476052 -8.76798534 6.84933662
v -3.66047478 -13.59183693 5.46119595
v -6.34265423 -12.60356522 5.01320124
v -7.12053156 -10.03496933 5.05352974
v -2.72063184 -11.67522144 6.44158792
v -4.26882935 -12.02161407 6.99824238
v -16.85415459 -19.12854004 -8.03523064
v -18.18380928 -18.07298279 -6.15708637
v -14.28514862 -20.43576050 -5.90548038
v -17.68547630 -19.47413635 -4.89342976
v -15.32829762 -20.85572433 -8.24850941
v -17.69619179 -19.97994614 -6.02601290
v -12.99409294 -18.14124107 -1.83691549
v -12.87002373 -19.64486504 -0.91157722
v -9.73167133 -19.44913673 -0.46282548
v -10.30754948 -16.85183334 0.46818703
v -11.31197834 -20.61022186 -0.51910704
v -9.91917133 -21.10371017 -1.95022583
v -11.97082233 -21.09594154 -1.67436051
v -2.94927979 -21.92983055 -0.47771540
v -4.45072079 -21.39059448 1.61566961
v -6.40603542 -19.47285652 1.05089557
v -4.99171543 -20.45398903 2.37145567
v -5.97977638 -21.76987267 -0.75734597
v -4.51798868 -22.72008324 -1.79556012
v -5.31714106 -22.21414757 0.50033337
v -6.01914072 -20.66240883 1.78447497
v -12.85499001 -27.53380775 -11.79498196
v -15.44508648 -27.00420380 -10.52464294
v -13.52479744 -24.66649818 -8.94307327
v -15.82911777 -25.76928711 -9.38807678
v -11.06608391 -26.81008339 -4.97616053
v -10.92347622 -25.80226517 -5.10903597
v -15.21911812 -26.01301575 -9.06598186
v -0.51427495 23.53729630 4.76364470
v -7.79356766 25.58844948 -1.43026876
v -18.78339386 -16.92746162 -11.29239559
v -19.48170662 -15.07105541 -9.88253212
v -19.70532036 -15.84215260 -11.17548084
v -20.02460480 -15.84883976 -9.56405067
v -18.25592613 -16.53733063 -9.09541893
v -21.34851456 -9.80861855 -11.26239109
v -23.19827843 -8.88993549 -9.99571323
v -21.44808388 -5.60900259 -11.50627613
v -20.76712608 -6.11290503 -8.10359097
v -21.41799164 -5.49121284 -9.96893597
v -23.06789017 -7.72180605 -8.97556210
v -13.17483997 19.96057129 -4.91224575
v -15.54909897 19.34533119 -5.56809282
v -17.29807091 17.37361526 -5.16326761
v -21.28421783 5.97164631 -10.48072147
v -20.02994919 8.92438221 -7.44944906
v -19.46759415 5.78619385 -5.54869890
v -18.22211838 12.03549004 -4.48788643
v -10.28687191 21.93127441 -3.18994641
v -14.04330349 21.53430748 -7.50417709
v -17.25356483 14.53717804 -4.09330320
v -15.57594967 -22.63433075 -17.39852524
v -17.00597572 -21.53678513 -15.80001640
v -15.87334824 -21.53402138 -13.10359573
v -19.47856712 -19.70261955 -16.45106697
v -19.88756180 -14.33944035 -13.11162853
v -12.51115227 -20.02793884 -21.71294785
v -13.92696571 -15.21841049 -22.69845963
v -14.57154465 -12.37465382 -22.77930641
v -16.23326683 -9.65162563 -22.06984329
v -20.30655098 -5.30273867 -18.88323975
v -19.22190857 -8.30624580 -20.10892868
v -20.66083527 -11.76213264 -17.74735832
v -21.65765953 -6.34326124 -16.22701836
v -21.33616447 -10.68162823 -14.67256832
v -21.56974792 -9.87855625 -16.31826782
v -22.30688477 -9.87709427 -15.67848110
v -13.46783829 16.27657318 -17.40841103
v -12.15421104 22.43426132 -9.33184910
v -8.51006222 26.81508064 -7.57774353
v -9.86234093 23.67598534 -5.48413610
v -14.55103970 12.58429813 -20.10449028
v -12.88730621 18.82540321 -2.49372411
v -12.11181831 20.28678703 -1.62641585
v -10.11890697 21.27676964 -1.33044183
v -11.38207054 18.86627007 -0.91419715
v -16.56343079 13.83030605 -1.11665940
v -23.02075195 1.02516735 -10.21042633
v -21.92252731 2.55819201 -11.48098469
v -21.01566315 1.20633149 -6.72412491
v -21.05560303 -0.28405410 -7.47682667
v -22.35264587 -0.24561149 -9.18150711
v -23.95254517 1.11744273 -8.16634560
v -22.09049225 4.02531767 -8.30211830
v -23.59044647 3.46117234 -8.75389862
v -20.79303551 3.91093111 -7.09113646
v -21.99476814 -0.69993222 -14.28845119
v -22.41366196 1.78119671 -14.28113174
v -23.37054634 1.25790310 -15.46465397
v -21.30594063 4.00970364 -17.72955894
v -21.11519623 1.82934225 -18.06569481
v -22.95419502 1.45299947 -17.24654579
v -21.93662453 4.60392523 -14.32252312
v -21.69464684 4.80364275 -16.19785118
v -23.23451042 3.43871903 -15.80239296
v -18.36351013 -0.91438067 -20.78067780
v -19.98679352 5.64948559 -19.71137619
v -11.40794086 3.25802159 -23.54385757
v -16.55911446 8.07071781 -0.00949382
v -18.22738457 10.37445259 0.16514529
v -18.04430962 8.42909813 -2.84014606
v -15.32639885 13.24304199 0.33883485
v -16.52216530 19.38899040 -21.92454529
v -15.77087021 17.38828659 -22.14007950
v -22.31993866 22.91993904 -26.68977165
v -20.12767410 23.46036148 -27.53658104
v -20.18360138 22.53096390 -23.61937714
v -22.50830650 21.99784851 -23.88363838
v -24.66701698 16.72678185 -28.89709663
v -24.93952560 19.69153595 -27.97810745
v -18.08445358 14.57849503 -30.86532974
v -19.58838654 13.77736187 -26.84406281
v -17.26846504 21.35067940 -30.52377701
v -23.93845367 21.32877541 -25.93510437
v -22.33698273 14.57931137 -27.60148621
v -16.30121422 16.13687706 -26.20568848
v -18.32372856 22.82619858 -27.01195526
v -16.91937447 20.11907196 -33.17596436
v -17.07223320 15.59425163 -33.76755905
v -22.42929649 12.77917004 -34.37160110
v -25.45578575 16.95783806 -32.71997070
v -21.85810661 13.57440662 -32.19416809
v -25.07721138 19.45603752 -33.02744293
v -24.12166214 21.25753021 -32.64403152
v -22.75319672 22.28304863 -32.93245316
v -16.47604561 18.58670616 -32.18511581
v -20.05947304 13.33684349 -32.73009872
v -23.58646011 13.74597740 -33.21231842
v -20.20141029 22.55014038 -32.78945541
v -23.39829063 19.74733353 -22.19445038
v -24.59769821 14.90529060 -19.55362701
v -21.25270462 9.58433628 -22.50908089
v -23.99725151 9.84969330 -17.95675659
v -21.29800224 6.62087250 -18.23712730
v -15.04164982 13.30383301 -20.18988037
v -18.54130745 19.10231590 -18.30060577
v -21.31463051 20.31412125 -20.68012047
v -21.23413277 18.44988060 -16.96512222
v -24.20409393 12.04480267 -22.20376778
v -24.67312050 11.33423996 -17.87265205
v -17.62233925 9.48895931 -21.84273529
v -17.84297180 13.90920544 -25.80209923
v -18.17929268 21.73690605 -23.19906235
v -18.85806084 19.35700607 -8.38507366
v -17.03760529 20.85236359 -8.61619568
v -20.70650482 11.52755833 -8.09223557
v -19.19195175 13.61045265 -5.31012440
v -20.70251656 16.75264168 -8.87363052
v -24.17456627 13.62396336 -15.24907207
v -20.07381439 19.03845596 -11.78478813
v -15.11460781 19.40090179 -14.02635288
v -24.30353165 12.01649189 -15.38239479
v -22.62519455 13.33808899 -10.75632381
v -18.15924835 20.01466370 -12.31642532
v -14.84333515 16.09046173 -18.34265327
v -21.26150131 20.61760902 -34.02491379
v -24.34226799 16.25024414 -34.31312561
v -21.74071121 7.02900982 -15.05102444
v -21.31631851 -14.99654293 -18.37806511
v -23.51429176 -9.42282009 -26.23212624
v -21.34924507 -7.83869743 -26.28775787
v -20.85495186 -8.61657143 -22.25510597
v -19.53521156 -8.03278351 -22.93114281
v -22.33399200 -9.74953651 -22.33391190
v -22.48639488 -15.81811428 -26.54758644
v -23.85559654 -13.50693417 -25.08673668
v -17.40049171 -14.94817066 -26.08004379
v -15.74120045 -10.71208954 -23.71023750
v -17.13396835 -9.03161335 -23.70902634
v -23.34812737 -11.90458775 -22.54638672
v -20.61812019 -16.71986771 -29.53834915
v -20.89282799 -16.45470619 -25.68514824
v -20.24477005 -7.94722891 -29.48291779
v -18.55072403 -7.99732924 -23.56353760
v -20.09461021 -8.22450924 -32.96183777
v -17.57757378 -9.15368938 -29.97916031
v -16.28842163 -15.14379978 -34.20064926
v -17.15438080 -15.79310417 -31.91008568
v -16.02167702 -14.79232883 -32.52983856
v -18.80357361 -17.40672684 -32.79361343
v -23.75357056 -16.73905373 -33.99708557
v -24.61427116 -15.07591915 -33.95657730
v -22.17734528 -17.06829453 -32.57755661
v -24.43704605 -11.99602032 -29.61658859
v -23.54938698 -9.40591621 -30.07199478
v -16.20307159 -12.30658817 -28.45323181
v -24.10504723 -15.23559475 -31.93437195
v -22.67691994 -8.81408978 -32.60033035
v -19.83092880 -19.70318604 -20.38525391
v -20.63034248 -17.85643005 -17.01391220
v -18.71987152 -20.80014420 -18.15124321
v -16.29872513 -21.27925491 -19.80832481
v -15.64808464 -17.57146263 -22.83699799
v -20.78309441 -18.86592102 -19.43993378
v -20.49024773 -20.02622223 -17.45148849
v -14.78732300 -14.31349182 -23.58342934
v -18.27449226 -19.21535110 -22.41918755
v -20.56055260 -20.03814888 -18.71016502
v -21.43785858 -17.70610619 -23.12631989
v -22.84923553 -15.83963299 -22.95702934
v -21.90388489 -11.13023472 -20.67832184
v -20.26091957 -9.60041332 -20.35210228
v -18.46014786 -8.69713020 -21.64893532
v -22.31794739 -16.89733124 -21.38431168
v -21.50924492 -9.77854824 -34.31117249
v -9.24509144 -30.58484650 -22.59536743
v -8.00422573 -31.34791756 -23.41861725
v -9.22654533 -29.02985382 -22.83052063
v -8.38546753 -29.05678558 -23.51873398
v -12.54442978 -29.91056252 -18.08883286
v -13.43448544 -30.62276077 -18.72724533
v -11.38612556 -30.91800499 -19.96042252
v -10.73891830 -32.71789932 -19.53844643
v -12.51028252 -31.85808563 -19.97615623
v -12.00246143 -32.06427765 -17.52366447
v -13.05837250 -32.25922012 -18.54455757
v -12.40573978 -29.55257416 -16.95363235
v -11.73793507 -29.88923073 -11.91945744
v -12.51781273 -29.95733452 -12.77479935
v -13.55244637 -31.09829140 -12.71018410
v -12.08196449 -31.02525902 -14.81968498
v -13.54412556 -31.55854988 -13.72117233
v -11.41868973 -32.12404251 -12.18683720
v -7.95535803 -30.37266541 -8.57298183
v -9.24618816 -30.72344971 -8.99154472
v -9.40069580 -31.66560936 -7.93824339
v -9.87946033 -30.89582634 -10.28194523
v -10.00980091 -32.25680923 -8.49416065
v -6.76008558 -32.14350891 -8.53114891
v -5.18050623 -31.09064674 -7.55066442
v -4.63059807 -31.84976578 -5.98235655
v -3.89384270 -32.99214172 -6.35285378
v -3.51753950 -31.30318832 -5.71061850
v -12.72228241 -32.16677856 -19.38424492
v -8.05953407 -40.60347748 -11.79073334
v -8.01705933 -39.73593521 -9.52345943
v -9.08939743 -36.50088501 -14.22620106
v -9.84717846 -34.04822922 -19.46080589
v -8.68192387 -37.50683212 -12.88596725
v -7.98761272 -39.79949570 -19.45120621
v -8.61538696 -39.64509964 -15.76738644
v -8.35813904 -40.94046783 -16.22048569
v -8.23440933 -41.10762405 -15.66864967
v -16.19207764 -15.86613941 -4.23175764
v -13.94974136 -14.62204647 -1.58271694
v -17.83942795 -15.34680939 -6.60275984
v -8.19164848 -15.34913826 2.12024236
v -8.81546688 -22.94606400 -4.56281137
v -11.49402142 -21.26495743 -4.06060743
v -4.35618353 -18.07299042 2.31415606
v -6.25066519 -8.77186871 5.77818918
v -9.67527103 -12.35351086 2.91381931
v -19.12923622 -7.61074543 -5.52125072
v -7.38372183 4.02973461 6.46731281
v -5.72268438 1.04658723 7.42521858
v -14.63747597 5.26590204 1.86831141
v -17.05524635 3.88979769 -0.00869567
v -19.21645355 -1.67237258 -3.38711095
v -5.79748631 10.23635197 6.04926586
v -11.57206821 16.77510834 -0.18386962
v -15.39545441 8.96761036 0.85084581
v -17.54922867 11.91147900 -3.01463890
v -15.32646847 15.43832016 -2.70649219
v -7.67730761 23.58751106 -1.20923769
v -3.80855799 22.54347801 3.16531539
v -6.09639597 22.14276314 1.46454787
v -6.54248810 18.07409096 3.11616516
v -3.16531801 15.41742516 5.18928194
v -4.44364738 25.81394386 2.77769685
v -3.00220418 -25.06937790 -3.23176384
v -5.94839001 -25.10735130 -4.38846207
v -3.76838732 -28.59364510 -6.03673887
v -5.97818327 -27.99689865 -6.66813469
v -6.38499022 -26.28626251 -5.48903036
v -2.07746816 -26.68831635 -4.45144510
v -9.66554165 -24.90806007 -5.41345215
v -8.87042522 -27.60712051 -6.55262375
v -10.03241158 -27.77598953 -8.41129208
v -11.27859116 -27.77987671 -10.35025501
v -11.40689659 -25.50495148 -8.06747437
v -8.58906269 -26.66862869 -5.97294998
v -14.73988724 -24.71531296 -11.69333363
v -12.81504536 -27.57850075 -14.26845360
v -14.24467659 -26.68810654 -11.95676136
v -3.11978960 -33.42751312 -7.94750643
v -5.73076820 -33.92537689 -9.05489635
v -1.99400532 -31.04100227 -6.65541363
v -8.45913601 -33.61313248 -10.38760757
v -9.23770905 -35.06588364 -12.12027454
v -0.34487772 -39.25626373 -8.94341278
v -2.98721099 38.16158295 -1.47595024
v -0.70922029 28.06532860 5.48792553
v -1.19044423 38.34924316 -3.27090096
v -3.93231487 30.26535225 4.34279823
v -8.01328087 27.73312950 -1.15408170
v -6.65218782 28.37127495 -0.27080530
v -2.22713327 23.20955086 4.17969179
v -1.63466871 25.18463516 4.39889145
v -6.31869841 31.28004456 -0.29413214
v -5.75568008 32.87416077 1.61180902
v -1.03638911 28.88050652 5.78780317
v -3.50799942 28.75843811 4.17543316
v -4.69391346 37.13805008 0.44690046
v -5.91340780 30.88041878 1.45764577
v -5.51609182 25.97078896 1.81346488
v -5.71357441 27.73176956 1.18182099
v -7.56461143 28.28513718 -2.69068050
v 0.41482320 -43.48431778 -9.61929703
v -0.23985910 -46.40971375 -11.53781700
v 0.24991243 -48.39973450 -13.09171104
v -4.92390060 -42.82180786 -11.03288841
v 0.32581276 -41.58584976 -9.18031406
v -1.04914105 -42.69750977 -9.69091320
v -5.48007488 -46.08861542 -13.51502323
v -2.45751047 -37.49129868 -7.49768066
v -8.55145645 -33.10112762 -8.06054878
v -9.18420601 -33.40821838 -8.53215599
v -11.39904690 -33.44684601 -13.68952942
v -10.68203259 -33.05466461 -12.47141838
v -11.88851261 -32.89803696 -14.63902950
v -16.10630035 -26.07473564 -10.61324406
v -12.73240757 -32.76848984 -12.36051464
v -13.68731785 -31.92784119 -12.92662811
v -12.77737999 -33.21768951 -12.87427616
v -13.29545975 -32.78231430 -13.55636978
v -13.42437458 -31.12967682 -17.89688301
v -13.08307743 -31.04615593 -19.62406349
v -11.90683937 -18.71513176 0.32423455
v -5.15393305 -10.90369892 7.14837408
v -5.59908867 -13.11425304 5.62615681
v -4.53574038 -0.64713120 9.21226120
v -3.39786696 -2.29647279 9.15805912
v -4.98800945 -3.12796569 8.29154682
v -3.83304548 9.09524155 9.01659870
v -3.25551081 7.94961834 9.37905216
v -4.62296200 6.89318371 8.49650383
v -1.99598837 17.15952301 6.13733816
v -1.63930464 24.39000130 4.84338188
v -4.58795929 -27.52349854 -2.66593337
v -5.69878960 -27.86410141 -4.38041162
v -4.45086575 -28.45280647 -3.69723225
v -5.11781883 -26.33390808 -2.82334733
v -5.87495422 -26.62154198 -3.41965556
v -11.90711498 -9.39612770 3.75822711
v -13.21591568 -10.10693359 2.88917375
v -10.63572407 1.04890764 5.68904257
v -13.01474953 -0.14131612 4.93418932
v -13.60826683 0.67774868 3.98023295
v -10.32753754 9.60899639 5.39275599
v -11.45579624 10.28427029 4.66316938
v -11.83116436 8.18701458 4.50152540
v -7.57676458 19.05786324 2.50021863
v -7.57498693 20.06904984 1.33538091
v -4.82000685 24.46521759 2.65403843
v -18.30111122 -17.83484840 -4.74697924
v -20.11728668 -8.97107315 -1.92970109
v -19.14209557 -10.04031754 -1.81212211
v -19.51684570 2.60103822 -0.06298271
v -18.16818428 11.89575005 -0.08281291
v -17.55326271 10.81724644 0.87839419
v -8.36682320 26.53478813 -1.46708298
v -8.22882748 26.75095749 -0.82936013
v -6.28675127 31.83880424 1.61747992
v -4.82557392 31.60384941 3.19766593
v -20.82642174 -10.91728306 -10.79484558
v -20.04605675 -9.60819626 -7.98051310
v -19.51896858 -12.06687641 -9.27529335
v -22.04594231 -10.32309151 -9.75400925
v -23.41432762 -8.85518551 -8.97267914
v -23.66699028 2.69266868 -7.55914927
v -24.29036522 2.42391253 -8.91508102
v -8.84658241 -36.19983673 -10.35330963
v -5.34763241 -39.31167603 -9.18341637
v -9.12371159 -38.05365372 -9.79564095
v -2.80715394 -47.47126770 -13.52611542
v -7.38309002 -38.16370392 -7.33703804
v -8.84436989 -39.06723404 -7.22945070
v -10.06227779 -37.64638519 -8.12382126
v -21.68069458 -5.74549341 -14.38703156
v -21.94663048 -1.46579611 -16.43943024
v -23.14394569 0.95223165 -16.91983604
v -15.28178501 -26.23132324 -16.71747208
v -1.95830107 42.52102280 6.08515596
v 1.10577095 36.02069473 10.42993069
v 1.03049266 41.61890793 0.22549823
v -3.17783475 38.77437210 6.51863670
v -2.87258029 32.37844849 5.65312862
v -1.08168495 34.64388657 8.23198509
v -20.24030304 -16.58246231 -10.21962833
v -8.06667042 28.43268776 -5.06855774
v -17.17010689 -18.57826614 -10.51089764
v -19.00605965 -15.49158669 -8.97003269
v -19.71690369 -16.49678230 -9.18931389
v -11.21212006 -27.47495461 -6.41448069
v -20.05730629 1.50860953 0.09181467
v -21.31906128 -18.11567497 -33.87687683
v -19.30620003 -18.43571091 -34.02309036
v -24.14171982 -16.68018723 -32.73948288
v -24.80333710 -15.76668835 -32.99477768
v -23.25659561 -17.32316017 -33.78565216
v -15.69609642 -16.19640350 -33.65912247
v -18.08192444 -17.19051361 -34.05693054
v -20.92850494 12.72438240 -34.08419800
v -18.86126709 13.12191486 -34.40035248
v -17.11034012 14.97390461 -32.89884949
v -17.92982292 13.35462761 -34.04074478
v -25.66432381 16.56321526 -33.94010544
v -24.81092262 14.48448372 -34.00841141
v -20.22993851 -18.49896049 -33.57649231
v -16.09574127 -16.46777916 -34.01084900
v -16.62896156 -16.31449509 -32.38638306
v -18.27480698 13.38015270 -33.24419022
v -3.51597285 -27.23040962 -2.99757671
v -10.11314774 -26.51129532 -4.76677990
v -3.31617641 -27.85657692 -3.66173863
v -9.99086857 -27.44244957 -5.25126219
v -18.39117432 -18.99365044 -4.96019077
v -9.87764740 -39.00872803 -8.18185425
v -9.76200390 -32.88916397 -8.23912239
v -9.18818188 -32.76175308 -7.77644205
v -11.94370174 -19.85506248 -0.02461908
v -22.49997902 -8.32337761 -15.91146088
v -22.69689369 -8.56520081 -15.13038445
v -8.41367435 -29.97026253 -23.79776001
v -4.08734608 -32.47382736 -5.81264305
v -2.98098826 -32.40045547 -5.71236277
v 0.33286440 -42.62210083 -9.09426022
v -2.64557648 47.71237564 28.61966324
v -1.77194822 46.93439102 25.96667862
v -8.26663876 -34.25079727 -23.01575661
v -7.77870655 -35.44081879 -23.63738060
v -9.64283848 -37.32149887 -7.36500740
v -11.24122810 -36.14739227 -23.35461807
v -21.05550003 -18.35969162 -21.41006279
v -22.34543228 -17.83961487 -22.11293411
f 5 2 1
f 6 3 2
f 5 6 2
f 4 5 1
f 5 4 12
f 11 7 9
f 618 11 9
f 6 5 12
f 17 18 19
f 21 22 14
f 3 17 19
f 24 23 6
f 618 21 11
f 6 23 17
f 6 17 3
f 11 14 7
f 15 6 13
f 24 6 14
f 6 15 14
f 7 14 26
f 12 8 27
f 28 12 4
f 8 10 7
f 7 10 9
f 31 33 32
f 34 33 31
f 29 30 31
f 39 35 36
f 37 35 39
f 38 37 39
f 39 36 40
f 41 43 42
f 42 43 44
f 45 651 46
f 38 39 48
f 37 50 49
f 35 37 49
f 36 35 49
f 44 38 42
f 42 38 41
f 44 46 52
f 52 46 51
f 38 44 51
f 44 52 51
f 38 51 53
f 38 53 50
f 38 50 37
f 43 47 45
f 43 45 54
f 54 45 46
f 43 54 46
f 43 46 44
f 49 50 53
f 41 38 48
f 41 57 43
f 43 57 56
f 481 59 43
f 481 43 56
f 39 40 60
f 60 40 61
f 375 60 61
f 84 48 39
f 84 39 66
f 66 39 60
f 72 73 74
f 76 77 78
f 397 84 66
f 69 81 82
f 82 81 83
f 48 84 41
f 56 57 85
f 57 41 84
f 85 57 84
f 86 55 47
f 86 690 55
f 43 59 86
f 43 86 47
f 481 58 87
f 59 481 87
f 88 247 90
f 88 90 91
f 90 268 92
f 90 93 91
f 94 95 92
f 268 94 92
f 90 92 96
f 90 96 93
f 94 97 95
f 95 97 92
f 92 97 701
f 92 701 96
f 98 101 375
f 98 99 97
f 98 375 99
f 97 99 375
f 97 375 701
f 145 142 148
f 149 150 151
f 161 159 160
f 161 160 162
f 169 165 166
f 182 183 181
f 184 179 178
f 448 491 195
f 197 198 199
f 197 199 200
f 208 103 102
f 213 214 215
f 527 216 219
f 100 228 229
f 227 100 231
f 227 231 230
f 230 361 232
f 101 98 228
f 98 97 228
f 101 228 100
f 94 233 97
f 268 365 233
f 268 233 94
f 236 235 237
f 237 235 234
f 361 237 232
f 89 110 242
f 89 242 88
f 244 242 110
f 243 88 242
f 243 242 244
f 244 111 320
f 320 111 245
f 88 243 247
f 243 305 247
f 245 111 220
f 220 111 246
f 253 254 255
f 260 256 257
f 260 257 261
f 262 263 264
f 267 234 268
f 247 305 269
f 247 269 90
f 90 269 268
f 268 269 270
f 268 270 267
f 276 287 277
f 276 277 321
f 278 280 279
f 279 280 281
f 282 283 284
f 286 287 276
f 278 279 288
f 288 279 281
f 285 282 284
f 287 289 285
f 280 286 290
f 290 286 276
f 290 276 291
f 280 290 291
f 280 291 281
f 322 292 280
f 280 292 286
f 574 285 289
f 293 574 289
f 293 289 287
f 571 283 285
f 283 282 285
f 294 571 285
f 296 297 278
f 288 296 278
f 295 296 288
f 295 288 283
f 298 293 286
f 293 287 286
f 292 298 286
f 299 294 285
f 574 299 285
f 297 322 280
f 297 280 278
f 302 304 303
f 277 305 306
f 277 307 305
f 301 308 310
f 310 308 309
f 310 309 301
f 304 300 311
f 307 302 267
f 307 267 270
f 307 270 269
f 307 269 305
f 281 301 300
f 283 288 300
f 288 281 300
f 284 304 302
f 285 284 302
f 285 307 277
f 287 285 277
f 291 276 321
f 291 321 308
f 281 291 308
f 281 308 301
f 283 300 304
f 284 283 304
f 285 302 307
f 320 245 312
f 312 245 225
f 318 312 313
f 313 312 225
f 313 225 221
f 314 317 315
f 315 317 226
f 315 226 221
f 315 221 316
f 314 315 316
f 314 318 313
f 314 313 317
f 317 313 221
f 226 317 221
f 300 301 318
f 308 319 320
f 300 318 314
f 304 311 314
f 311 300 314
f 309 312 318
f 301 309 318
f 309 308 320
f 309 320 312
f 277 306 321
f 321 243 319
f 308 321 319
f 243 320 319
f 324 298 292
f 324 292 322
f 323 293 298
f 324 323 298
f 324 293 323
f 324 573 293
f 324 577 573
f 324 295 576
f 324 297 296
f 295 324 296
f 324 322 297
f 314 325 304
f 304 325 303
f 303 325 222
f 302 303 222
f 302 222 326
f 302 326 267
f 314 316 325
f 223 325 316
f 328 329 327
f 357 328 327
f 331 332 342
f 335 351 336
f 337 338 339
f 333 355 340
f 355 357 327
f 355 327 340
f 327 330 341
f 340 327 341
f 340 341 334
f 333 340 334
f 351 331 342
f 351 342 336
f 338 335 336
f 338 336 339
f 328 343 329
f 328 337 343
f 337 365 344
f 343 337 344
f 329 343 327
f 343 344 330
f 327 343 330
f 345 346 328
f 347 337 346
f 345 347 346
f 346 337 328
f 349 335 338
f 348 349 338
f 566 331 351
f 353 354 355
f 354 356 357
f 354 357 355
f 347 338 337
f 347 348 338
f 352 351 335
f 353 355 358
f 358 355 332
f 332 355 333
f 566 358 331
f 358 332 331
f 356 328 357
f 356 345 328
f 359 360 228
f 233 369 97
f 364 97 369
f 366 361 363
f 364 228 97
f 364 359 228
f 365 337 339
f 339 233 365
f 336 359 364
f 231 366 363
f 330 235 368
f 368 235 236
f 368 236 237
f 365 268 234
f 365 234 235
f 330 344 365
f 330 365 235
f 339 336 369
f 336 364 369
f 339 369 233
f 336 342 360
f 336 360 359
f 334 341 371
f 341 368 371
f 341 330 368
f 371 368 237
f 334 371 237
f 334 237 361
f 374 372 347
f 374 347 345
f 374 348 372
f 372 348 347
f 373 568 348
f 348 374 353
f 348 353 373
f 374 356 354
f 374 354 353
f 374 345 356
f 395 397 396
f 31 85 84
f 32 85 31
f 29 397 395
f 29 395 34
f 31 397 29
f 31 84 397
f 398 31 30
f 31 398 399
f 34 31 399
f 400 29 34
f 30 29 400
f 30 399 398
f 34 399 30
f 34 30 400
f 58 86 87
f 86 59 87
f 221 223 316
f 223 221 220
f 225 220 221
f 220 225 245
f 180 182 181
f 180 181 404
f 181 403 404
f 178 180 404
f 178 404 230
f 187 185 402
f 185 406 181
f 185 181 407
f 181 406 403
f 185 407 402
f 402 407 181
f 402 181 401
f 186 187 190
f 190 187 405
f 191 193 408
f 408 193 405
f 194 410 188
f 193 194 188
f 193 188 411
f 411 188 190
f 193 411 190
f 193 190 405
f 173 408 414
f 408 173 409
f 413 408 405
f 413 173 414
f 413 414 408
f 173 176 409
f 165 169 170
f 167 405 187
f 167 187 402
f 170 169 415
f 416 170 413
f 416 413 405
f 167 416 405
f 161 417 159
f 401 163 402
f 157 163 401
f 157 401 184
f 161 418 417
f 418 157 417
f 417 157 184
f 163 169 167
f 163 167 402
f 163 159 415
f 163 415 169
f 149 421 420
f 172 153 412
f 155 153 172
f 155 172 413
f 153 150 412
f 170 145 413
f 142 145 170
f 142 170 415
f 144 421 155
f 145 144 155
f 145 155 413
f 144 511 421
f 421 511 420
f 423 140 223
f 137 139 415
f 137 415 159
f 137 159 424
f 424 159 417
f 140 424 417
f 139 141 142
f 139 142 415
f 141 423 142
f 423 422 146
f 142 423 146
f 117 426 118
f 149 121 419
f 115 121 149
f 115 149 420
f 426 115 427
f 427 115 420
f 120 118 121
f 133 420 511
f 146 133 511
f 135 133 146
f 135 146 422
f 133 131 426
f 133 426 427
f 133 427 420
f 131 135 428
f 271 429 422
f 271 422 423
f 271 423 272
f 272 423 223
f 429 274 422
f 274 135 422
f 274 428 135
f 430 272 223
f 274 254 428
f 430 223 253
f 254 253 223
f 251 224 476
f 248 251 428
f 248 428 254
f 248 254 223
f 224 220 246
f 248 220 224
f 220 248 223
f 127 129 131
f 131 129 426
f 127 131 428
f 128 476 129
f 129 476 431
f 251 127 428
f 128 127 251
f 128 251 476
f 118 123 425
f 502 123 118
f 502 118 426
f 124 126 431
f 124 432 123
f 126 129 431
f 126 502 129
f 129 502 426
f 434 435 188
f 434 188 410
f 438 436 437
f 438 437 439
f 435 440 188
f 440 438 188
f 436 441 434
f 442 406 188
f 442 443 406
f 406 443 403
f 446 444 443
f 443 444 403
f 444 438 439
f 444 442 188
f 444 188 438
f 447 448 449
f 195 201 445
f 201 444 445
f 201 403 444
f 448 195 445
f 448 445 449
f 196 404 403
f 201 196 403
f 196 450 404
f 450 447 404
f 404 447 230
f 388 451 453
f 454 389 437
f 389 439 437
f 454 437 451
f 451 437 452
f 456 455 457
f 387 386 444
f 444 386 445
f 387 444 439
f 386 456 457
f 387 439 389
f 455 387 389
f 455 389 388
f 455 388 453
f 64 451 452
f 64 458 453
f 64 453 451
f 458 459 453
f 62 64 452
f 433 203 467
f 464 465 466
f 89 109 468
f 110 89 468
f 110 468 463
f 469 475 503
f 244 110 463
f 244 463 460
f 461 112 471
f 112 244 460
f 112 460 471
f 124 205 432
f 205 124 469
f 469 124 431
f 205 204 794
f 205 794 432
f 204 475 462
f 476 203 431
f 431 203 469
f 203 433 475
f 475 433 462
f 203 475 469
f 206 476 224
f 477 206 224
f 477 224 246
f 464 477 461
f 465 464 461
f 206 465 433
f 465 461 433
f 206 433 476
f 433 470 462
f 473 470 433
f 470 473 462
f 473 550 462
f 474 473 433
f 474 433 461
f 320 243 244
f 306 305 243
f 306 243 321
f 32 392 482
f 32 482 85
f 457 483 33
f 56 85 482
f 33 34 395
f 457 33 395
f 392 32 33
f 33 483 392
f 64 485 65
f 485 62 63
f 485 63 486
f 485 486 65
f 459 458 486
f 458 64 65
f 458 65 486
f 62 459 486
f 62 486 63
f 64 62 485
f 454 390 389
f 456 487 455
f 488 385 457
f 488 457 395
f 384 488 395
f 385 383 449
f 385 449 445
f 384 395 383
f 385 445 386
f 385 386 457
f 489 382 396
f 396 382 395
f 381 489 396
f 382 379 101
f 381 396 379
f 379 396 377
f 382 449 383
f 382 383 395
f 447 491 448
f 381 391 489
f 384 383 492
f 492 493 488
f 379 380 381
f 408 192 191
f 172 495 413
f 172 177 495
f 177 176 174
f 177 174 495
f 176 173 174
f 495 174 175
f 175 413 496
f 495 175 496
f 172 176 177
f 173 413 175
f 173 175 174
f 496 413 495
f 149 151 152
f 150 497 151
f 497 153 154
f 151 497 156
f 497 154 155
f 497 155 156
f 152 151 156
f 156 155 498
f 152 156 498
f 155 421 498
f 153 155 154
f 421 149 498
f 498 149 152
f 150 153 497
f 118 499 117
f 117 499 119
f 120 122 499
f 120 121 122
f 499 122 116
f 122 121 500
f 122 500 115
f 122 115 116
f 119 499 116
f 116 115 501
f 119 116 501
f 121 115 500
f 118 120 499
f 426 117 501
f 501 117 119
f 115 426 501
f 126 125 502
f 502 125 124
f 124 123 502
f 126 124 125
f 503 204 205
f 475 204 503
f 205 469 503
f 504 505 506
f 504 506 507
f 504 507 508
f 188 406 189
f 190 188 186
f 170 171 166
f 166 171 509
f 170 510 171
f 510 168 509
f 171 510 509
f 509 168 167
f 509 167 169
f 166 509 169
f 170 416 510
f 416 167 510
f 510 167 168
f 165 170 166
f 511 512 147
f 144 148 511
f 144 145 148
f 511 148 512
f 512 148 142
f 512 142 143
f 512 143 147
f 147 143 142
f 146 511 147
f 142 146 147
f 131 133 513
f 131 513 132
f 133 514 513
f 514 133 134
f 514 134 513
f 513 134 136
f 136 134 135
f 513 136 132
f 132 136 135
f 135 131 132
f 133 135 134
f 127 515 130
f 130 515 128
f 130 128 129
f 127 130 129
f 127 128 515
f 476 467 203
f 476 433 467
f 195 491 202
f 195 202 201
f 450 490 447
f 180 178 182
f 182 178 183
f 401 517 184
f 160 518 162
f 160 164 518
f 518 164 158
f 162 518 158
f 163 157 158
f 163 158 164
f 161 162 158
f 159 163 164
f 159 164 160
f 157 418 158
f 418 161 158
f 141 519 423
f 424 520 137
f 137 520 138
f 423 521 140
f 522 273 271
f 522 271 272
f 523 273 522
f 275 523 522
f 253 255 522
f 274 275 522
f 274 522 254
f 254 522 255
f 272 430 522
f 274 429 275
f 429 523 275
f 429 271 523
f 271 273 523
f 430 253 522
f 250 249 248
f 251 249 250
f 251 250 252
f 252 250 224
f 248 224 250
f 251 248 249
f 224 251 252
f 477 524 206
f 206 524 207
f 524 477 466
f 206 207 465
f 207 524 466
f 207 466 465
f 477 464 466
f 473 474 472
f 474 461 472
f 461 473 472
f 213 526 214
f 214 526 232
f 217 527 417
f 217 417 184
f 527 218 528
f 527 528 417
f 218 214 528
f 528 214 525
f 258 263 140
f 140 263 223
f 258 140 259
f 417 259 140
f 260 259 417
f 256 260 417
f 256 417 525
f 525 417 528
f 263 262 222
f 263 222 325
f 263 325 223
f 529 256 525
f 262 529 222
f 215 214 530
f 530 214 219
f 530 219 531
f 531 219 216
f 530 531 216
f 530 216 217
f 218 527 214
f 214 527 219
f 217 526 530
f 527 217 216
f 526 213 530
f 213 215 530
f 263 532 533
f 263 533 264
f 258 261 532
f 258 259 261
f 532 261 533
f 533 261 257
f 533 257 264
f 264 257 256
f 529 262 264
f 260 261 259
f 263 258 532
f 256 529 264
f 72 74 75
f 75 455 453
f 74 534 457
f 74 457 455
f 75 74 455
f 75 453 459
f 535 75 459
f 483 393 392
f 393 394 535
f 393 535 392
f 392 535 459
f 534 483 457
f 484 459 536
f 536 459 62
f 478 479 481
f 479 536 62
f 80 480 478
f 80 478 481
f 480 484 478
f 484 480 459
f 480 392 459
f 480 80 481
f 480 481 392
f 56 482 392
f 56 392 481
f 86 58 481
f 86 481 690
f 383 385 493
f 383 493 492
f 381 380 391
f 380 379 391
f 535 72 75
f 393 538 394
f 394 538 535
f 534 539 483
f 484 479 478
f 239 540 214
f 214 540 525
f 239 214 232
f 238 241 237
f 238 237 234
f 238 234 540
f 241 239 237
f 237 239 232
f 541 265 540
f 265 525 540
f 541 540 234
f 542 266 326
f 265 542 529
f 265 529 525
f 542 326 529
f 529 326 222
f 326 234 267
f 266 541 326
f 326 541 234
f 238 590 241
f 239 240 540
f 463 545 544
f 463 544 461
f 471 460 461
f 460 463 461
f 548 546 549
f 544 545 1
f 1 461 544
f 20 546 461
f 20 547 546
f 19 550 547
f 2 461 1
f 3 461 2
f 20 461 3
f 20 3 547
f 19 547 3
f 19 18 550
f 546 548 473
f 548 550 473
f 548 547 550
f 461 546 473
f 548 549 547
f 549 546 547
f 106 551 100
f 106 100 227
f 105 107 449
f 105 449 382
f 105 382 101
f 106 227 447
f 227 230 447
f 106 447 107
f 107 447 449
f 105 101 100
f 551 105 100
f 209 210 552
f 209 552 102
f 209 102 103
f 551 592 105
f 113 246 111
f 112 113 111
f 112 111 244
f 113 477 246
f 114 112 461
f 553 114 461
f 113 553 461
f 113 461 477
f 211 208 232
f 232 208 230
f 554 209 184
f 184 209 217
f 209 526 217
f 209 211 232
f 209 232 526
f 212 554 184
f 212 184 178
f 104 212 178
f 104 178 102
f 208 102 178
f 208 178 230
f 212 104 554
f 554 104 209
f 104 210 209
f 377 71 375
f 376 378 101
f 378 375 101
f 378 377 375
f 376 101 379
f 376 379 377
f 376 555 378
f 197 556 198
f 384 492 488
f 408 557 192
f 410 558 557
f 558 410 194
f 557 558 559
f 559 558 194
f 559 194 193
f 192 557 559
f 192 559 191
f 191 559 193
f 410 557 408
f 141 139 519
f 519 560 521
f 139 138 519
f 139 137 138
f 519 138 560
f 560 138 520
f 520 424 140
f 560 520 521
f 521 520 140
f 423 519 521
f 14 11 21
f 16 14 22
f 24 14 23
f 14 16 23
f 23 16 22
f 28 8 12
f 8 28 10
f 352 568 564
f 563 352 564
f 373 566 561
f 566 562 561
f 566 351 562
f 565 358 566
f 353 358 565
f 352 335 569
f 569 335 350
f 349 348 567
f 352 569 568
f 574 293 575
f 295 283 576
f 578 561 562
f 564 578 562
f 564 562 579
f 564 579 563
f 373 561 578
f 351 352 563
f 562 351 579
f 351 563 579
f 373 578 564
f 568 373 564
f 580 568 569
f 580 569 567
f 567 569 350
f 335 349 567
f 335 567 350
f 348 568 580
f 348 580 567
f 581 565 566
f 581 353 565
f 566 373 581
f 373 353 581
f 571 577 582
f 577 324 582
f 324 576 582
f 576 283 582
f 283 571 582
f 570 571 572
f 299 573 570
f 577 571 570
f 573 577 570
f 571 294 572
f 294 299 570
f 294 570 572
f 575 573 583
f 299 574 573
f 574 583 573
f 583 574 575
f 293 573 575
f 442 200 199
f 442 199 443
f 443 199 446
f 199 198 446
f 440 435 507
f 506 440 507
f 434 441 584
f 444 585 442
f 504 441 436
f 504 436 505
f 504 508 434
f 504 434 584
f 504 584 441
f 436 438 505
f 435 434 507
f 507 434 508
f 438 440 506
f 438 506 505
f 446 198 556
f 446 556 444
f 196 201 586
f 201 202 586
f 202 491 586
f 491 447 490
f 196 586 490
f 196 490 450
f 586 491 490
f 585 200 442
f 197 444 556
f 197 200 585
f 197 585 444
f 401 181 516
f 181 183 516
f 516 183 587
f 183 178 587
f 587 178 179
f 517 516 587
f 517 587 184
f 184 587 179
f 401 516 517
f 391 379 382
f 391 382 537
f 493 385 488
f 489 391 537
f 489 537 382
f 483 539 393
f 456 386 487
f 386 588 487
f 588 386 387
f 487 588 387
f 487 387 455
f 186 589 494
f 186 188 189
f 186 189 589
f 589 189 406
f 589 406 185
f 494 589 185
f 187 494 185
f 186 494 187
f 104 102 210
f 210 102 552
f 211 209 208
f 208 209 103
f 590 240 239
f 591 590 239
f 591 239 241
f 590 591 241
f 106 107 108
f 107 105 108
f 108 105 592
f 108 592 106
f 106 592 551
f 540 240 590
f 540 590 238
f 265 543 593
f 543 541 593
f 541 266 593
f 593 266 542
f 265 593 542
f 541 543 265
f 377 378 594
f 594 378 555
f 377 594 376
f 594 555 376
f 388 389 595
f 389 390 595
f 595 390 596
f 596 390 454
f 388 595 597
f 388 597 451
f 595 596 597
f 597 596 451
f 454 451 596
f 536 479 484
f 598 14 599
f 26 14 25
f 26 25 600
f 600 25 14
f 600 14 598
f 27 598 601
f 27 601 12
f 598 599 601
f 12 601 599
f 8 602 600
f 8 600 27
f 602 26 600
f 27 600 598
f 15 13 599
f 13 6 599
f 6 12 599
f 14 15 599
f 7 26 602
f 8 7 602
f 70 603 71
f 69 71 396
f 69 70 71
f 71 377 396
f 79 76 66
f 76 78 66
f 78 67 66
f 67 397 66
f 604 60 375
f 604 79 66
f 604 66 60
f 603 604 375
f 603 375 71
f 67 68 397
f 68 396 397
f 68 69 396
f 69 82 70
f 82 83 70
f 70 83 603
f 74 73 534
f 603 83 604
f 78 77 67
f 73 72 535
f 535 538 73
f 73 538 393
f 393 539 73
f 73 539 534
f 81 77 76
f 81 76 83
f 69 68 81
f 68 67 77
f 68 77 81
f 604 83 76
f 604 76 79
f 231 361 230
f 231 100 229
f 362 231 360
f 231 229 228
f 231 228 360
f 367 332 333
f 367 333 334
f 367 342 332
f 370 334 361
f 370 367 334
f 605 370 362
f 362 370 361
f 605 362 360
f 342 605 360
f 361 231 363
f 231 362 366
f 362 361 366
f 606 367 605
f 605 367 370
f 342 367 606
f 342 606 605
f 113 112 114
f 553 113 114
f 608 609 1148
f 607 4 1
f 1148 1151 608
f 610 607 609
f 610 609 608
f 610 608 611
f 4 607 610
f 618 9 617
f 618 617 612
f 611 619 610
f 610 619 616
f 620 618 612
f 620 612 621
f 620 621 623
f 624 1153 1149
f 624 1149 18
f 624 18 17
f 17 625 624
f 608 1151 625
f 21 620 22
f 625 1151 624
f 626 17 23
f 611 608 625
f 611 625 17
f 611 17 626
f 622 627 611
f 626 621 611
f 611 621 622
f 612 629 621
f 630 631 613
f 615 28 632
f 615 630 613
f 615 616 619
f 615 619 630
f 619 631 630
f 28 4 633
f 28 633 616
f 28 616 632
f 613 612 615
f 615 612 614
f 612 10 614
f 612 617 10
f 10 617 9
f 609 607 1148
f 641 640 639
f 637 641 1002
f 654 644 643
f 644 642 643
f 645 644 654
f 645 646 644
f 646 642 644
f 642 40 36
f 646 40 642
f 647 649 648
f 650 651 45
f 663 650 47
f 47 650 45
f 645 652 646
f 654 653 49
f 654 643 653
f 51 656 53
f 651 657 46
f 657 51 46
f 643 642 653
f 49 653 642
f 36 49 642
f 661 647 648
f 649 647 645
f 658 657 651
f 658 51 657
f 649 645 658
f 658 659 51
f 659 656 51
f 645 656 658
f 658 656 659
f 645 654 655
f 645 655 656
f 661 650 663
f 661 648 650
f 648 660 650
f 660 658 651
f 660 651 650
f 648 649 658
f 648 658 660
f 655 654 656
f 53 656 49
f 49 656 654
f 47 55 663
f 647 652 645
f 661 664 647
f 646 669 40
f 662 665 661
f 661 665 664
f 647 664 666
f 647 666 665
f 664 665 666
f 667 665 662
f 1075 665 667
f 669 61 40
f 669 702 61
f 702 375 61
f 675 676 646
f 675 646 652
f 676 669 646
f 681 702 669
f 688 675 647
f 652 647 675
f 639 688 665
f 665 688 647
f 689 663 690
f 690 663 55
f 663 689 661
f 662 661 668
f 662 668 667
f 661 689 668
f 88 693 89
f 694 88 91
f 693 88 863
f 863 696 93
f 88 694 863
f 694 91 93
f 694 93 696
f 863 694 696
f 695 698 697
f 698 96 699
f 697 698 699
f 863 93 698
f 863 698 695
f 93 96 698
f 697 699 822
f 822 699 702
f 822 702 700
f 699 701 702
f 699 96 701
f 702 701 375
f 703 705 704
f 703 700 705
f 711 712 713
f 89 714 109
f 89 692 714
f 723 724 725
f 1031 728 1032
f 751 752 750
f 770 768 771
f 1011 766 767
f 783 784 785
f 795 1126 1072
f 796 706 707
f 796 800 706
f 805 806 804
f 813 811 812
f 817 703 818
f 703 819 818
f 819 955 820
f 819 821 955
f 700 703 822
f 697 822 823
f 695 697 824
f 697 823 824
f 826 861 827
f 827 695 825
f 861 695 827
f 828 826 827
f 831 830 832
f 955 821 828
f 692 89 693
f 692 693 715
f 833 715 693
f 836 835 715
f 836 715 834
f 693 863 837
f 807 836 834
f 852 853 854
f 855 856 857
f 858 859 860
f 863 695 861
f 862 863 861
f 870 872 871
f 870 873 872
f 876 907 877
f 876 877 880
f 878 869 891
f 869 881 891
f 878 868 869
f 879 873 870
f 875 895 879
f 881 907 876
f 882 908 868
f 882 868 878
f 871 872 908
f 871 908 882
f 894 882 878
f 894 871 882
f 1170 881 876
f 884 891 881
f 884 881 1170
f 893 880 874
f 887 880 893
f 888 879 870
f 888 870 889
f 875 879 888
f 883 878 891
f 892 880 887
f 876 880 892
f 1172 886 888
f 874 875 888
f 886 874 888
f 890 870 871
f 890 871 894
f 889 870 890
f 897 898 904
f 897 862 899
f 869 900 906
f 900 837 906
f 906 837 863
f 902 903 901
f 895 915 903
f 895 903 902
f 904 905 896
f 904 898 905
f 906 863 897
f 863 862 897
f 879 895 873
f 875 896 895
f 880 897 904
f 881 869 907
f 907 869 906
f 908 901 868
f 872 901 908
f 873 902 872
f 872 902 901
f 895 902 873
f 880 904 874
f 874 896 875
f 874 904 896
f 877 907 880
f 907 906 897
f 907 897 880
f 916 834 715
f 916 919 834
f 910 815 919
f 909 808 815
f 909 815 910
f 915 909 910
f 911 912 913
f 913 912 809
f 913 809 808
f 913 808 909
f 896 913 895
f 914 913 896
f 913 915 895
f 913 909 915
f 901 916 833
f 901 833 920
f 905 917 914
f 905 914 896
f 905 918 917
f 917 918 914
f 918 913 914
f 898 911 905
f 911 913 918
f 905 911 918
f 903 919 901
f 903 915 919
f 915 910 919
f 901 919 916
f 868 920 869
f 869 920 900
f 868 901 920
f 921 894 878
f 921 878 883
f 921 891 884
f 921 883 891
f 921 884 922
f 922 1172 888
f 921 889 890
f 922 888 921
f 921 888 889
f 921 890 894
f 911 810 811
f 898 897 911
f 897 923 911
f 923 810 911
f 897 899 923
f 813 912 911
f 813 816 912
f 807 834 919
f 807 919 815
f 955 828 924
f 926 927 928
f 925 929 927
f 925 927 926
f 950 925 926
f 941 933 951
f 941 934 933
f 949 935 929
f 949 929 925
f 931 935 949
f 936 937 930
f 932 937 936
f 938 934 941
f 938 939 934
f 926 928 939
f 926 939 938
f 940 938 941
f 944 932 943
f 944 951 932
f 948 936 930
f 949 925 950
f 945 932 936
f 943 932 945
f 947 952 949
f 952 930 931
f 952 931 949
f 953 926 938
f 953 950 926
f 957 703 817
f 957 817 962
f 962 817 818
f 823 822 958
f 959 963 955
f 963 960 955
f 958 822 957
f 957 822 703
f 958 957 962
f 933 824 951
f 824 823 961
f 951 824 961
f 825 695 824
f 825 824 933
f 934 825 933
f 932 958 962
f 820 960 963
f 929 966 967
f 929 967 927
f 927 968 928
f 967 827 968
f 927 967 968
f 966 828 827
f 966 827 967
f 928 968 939
f 939 968 934
f 968 825 934
f 968 827 825
f 951 961 932
f 932 961 958
f 961 823 958
f 932 964 937
f 962 964 932
f 964 962 954
f 935 966 929
f 935 924 966
f 966 924 828
f 931 955 924
f 931 924 935
f 970 940 941
f 970 941 951
f 970 951 942
f 970 942 1167
f 1167 946 970
f 970 947 949
f 970 949 950
f 970 953 938
f 970 938 940
f 970 950 953
f 702 705 700
f 977 978 979
f 983 984 985
f 989 990 991
f 978 999 979
f 979 999 977
f 635 688 639
f 639 1000 1004
f 635 639 640
f 635 640 638
f 635 638 636
f 636 638 1005
f 1002 1005 637
f 635 636 1005
f 637 1005 638
f 1002 634 1005
f 688 635 675
f 635 1005 675
f 637 1006 641
f 637 638 1006
f 1007 1006 638
f 1008 1007 638
f 1008 638 640
f 1008 640 641
f 1008 641 1006
f 1007 1008 1006
f 668 691 667
f 689 691 668
f 667 691 689
f 813 911 811
f 809 912 816
f 809 807 808
f 815 808 807
f 766 819 770
f 1011 819 766
f 775 1010 772
f 1014 1013 777
f 772 768 1014
f 772 1010 768
f 1010 1009 768
f 777 1013 774
f 774 1013 775
f 784 410 779
f 783 1013 784
f 781 1013 783
f 781 1015 1013
f 1015 1012 775
f 1015 775 1013
f 779 408 1015
f 408 409 1015
f 779 410 408
f 1015 409 761
f 762 1012 1015
f 762 1015 761
f 1016 759 763
f 764 172 760
f 760 172 412
f 761 176 764
f 761 409 176
f 764 176 172
f 757 739 756
f 756 1010 754
f 754 1010 775
f 775 1012 762
f 775 762 1017
f 1017 762 763
f 1017 763 758
f 758 763 757
f 763 759 757
f 1009 1010 753
f 749 1011 1009
f 749 1009 753
f 749 1018 1011
f 753 1010 756
f 753 756 739
f 753 739 750
f 760 412 746
f 747 759 760
f 747 760 746
f 1020 745 748
f 745 1019 748
f 744 149 743
f 743 149 419
f 746 412 150
f 746 150 744
f 744 150 149
f 1111 732 741
f 732 1021 741
f 739 757 740
f 740 757 759
f 759 747 740
f 740 747 748
f 740 748 1111
f 748 1019 1111
f 1022 812 736
f 750 739 734
f 733 750 734
f 1023 751 750
f 733 1023 750
f 736 751 1023
f 734 739 741
f 741 1021 1022
f 734 741 1022
f 743 419 722
f 717 1019 745
f 717 745 743
f 717 743 722
f 718 1024 717
f 722 419 121
f 721 722 118
f 722 121 118
f 118 425 720
f 721 118 720
f 732 1111 1019
f 731 1024 730
f 1024 720 730
f 731 732 1024
f 732 1019 717
f 732 717 1024
f 864 1022 1021
f 866 812 1022
f 864 866 1022
f 864 1021 732
f 864 732 1026
f 1026 732 867
f 867 732 730
f 867 730 1025
f 1027 813 812
f 1027 812 866
f 867 1025 842
f 842 1025 1028
f 842 1028 816
f 842 816 1027
f 1028 809 816
f 816 813 1027
f 841 1025 840
f 840 1029 836
f 838 1025 841
f 807 809 1028
f 807 1028 838
f 838 1028 1025
f 840 836 814
f 814 836 807
f 838 814 807
f 1032 730 720
f 729 1025 730
f 729 730 1032
f 1031 1029 840
f 1031 840 1025
f 1031 1025 729
f 727 1033 720
f 720 425 727
f 725 432 723
f 723 432 1033
f 727 425 123
f 727 432 725
f 727 123 432
f 1033 432 1032
f 432 1030 1032
f 1032 720 1033
f 1035 410 784
f 1035 784 1013
f 1035 1013 1036
f 1036 1013 1039
f 1040 434 410
f 1040 410 1035
f 437 436 1040
f 1040 436 434
f 1013 1014 768
f 1041 1013 768
f 1043 1038 1042
f 1045 1044 1043
f 1041 768 1045
f 1042 1038 1046
f 1038 1039 1013
f 1046 1038 1013
f 1046 1013 1041
f 1047 1048 1049
f 787 1044 789
f 1044 1045 768
f 789 1044 768
f 1049 1048 787
f 789 768 770
f 789 770 1047
f 770 819 1047
f 1052 437 1037
f 1037 1038 995
f 1052 1037 995
f 995 1051 1050
f 1052 452 437
f 989 1038 1043
f 989 1043 1044
f 989 1044 992
f 990 989 992
f 995 1038 989
f 994 995 989
f 1051 995 994
f 672 670 1050
f 670 452 1050
f 672 1050 1051
f 672 1051 674
f 670 62 452
f 674 1055 670
f 670 1055 62
f 714 468 109
f 692 1056 714
f 715 1056 692
f 1056 1058 714
f 1072 1151 1068
f 1058 463 714
f 714 463 468
f 715 1068 1056
f 1062 1034 432
f 1034 1030 432
f 1062 432 794
f 794 204 1063
f 1063 204 462
f 1031 1032 1030
f 1031 1030 1119
f 1119 1030 1034
f 1034 1071 1070
f 795 1029 1031
f 1072 1029 795
f 1072 836 1029
f 795 1031 1061
f 1031 1070 1071
f 1031 1071 1061
f 1057 1153 1066
f 1063 462 550
f 1063 550 1057
f 1152 1129 1059
f 1034 1063 1067
f 1129 1071 1034
f 1129 1034 1067
f 1067 1063 1057
f 1067 1057 1152
f 1057 1066 1152
f 1152 1066 1153
f 1129 1151 1065
f 1064 1072 1061
f 1064 1061 1069
f 1061 1071 1129
f 1065 1151 1072
f 1065 1072 1064
f 1069 1061 1129
f 916 715 833
f 900 920 837
f 833 693 837
f 833 837 920
f 1004 1002 641
f 1004 641 639
f 1054 1002 1004
f 639 1079 1000
f 1054 1004 1000
f 639 665 1079
f 672 673 671
f 671 1080 674
f 671 674 670
f 673 1080 671
f 1080 673 674
f 674 673 672
f 672 671 670
f 1050 452 997
f 995 1050 997
f 1051 994 1081
f 992 1053 993
f 1083 1002 1084
f 1085 634 1002
f 1085 1002 1083
f 983 1044 787
f 983 787 984
f 984 787 986
f 787 1048 986
f 986 634 1085
f 992 1044 983
f 988 992 983
f 1002 1054 1053
f 1002 1053 1084
f 1084 1053 992
f 988 1084 992
f 978 1003 634
f 978 634 980
f 975 982 704
f 975 704 977
f 977 704 978
f 634 986 1048
f 634 1048 982
f 980 634 982
f 1084 988 1087
f 984 986 985
f 1088 988 983
f 1088 983 985
f 1083 1084 1089
f 1085 1090 986
f 1090 1083 1088
f 980 982 1091
f 975 977 1092
f 759 1094 765
f 764 765 761
f 1094 762 765
f 765 762 1095
f 765 1095 761
f 760 759 764
f 764 759 765
f 763 762 1094
f 763 1094 1016
f 761 1095 762
f 1016 1094 759
f 743 745 1096
f 743 1096 1097
f 1096 747 1097
f 1097 747 1098
f 1097 1098 746
f 748 747 1096
f 748 1096 1020
f 746 1098 747
f 1020 1096 745
f 744 743 1097
f 744 1097 746
f 720 719 1099
f 720 1099 721
f 721 1099 1100
f 1100 1099 722
f 721 1100 722
f 1099 717 1101
f 1099 1101 722
f 719 717 1099
f 722 1101 717
f 1024 719 720
f 718 717 719
f 718 719 1024
f 726 724 1033
f 1102 725 724
f 726 1102 724
f 727 1102 726
f 1102 727 725
f 723 1033 724
f 727 726 1033
f 1103 1062 794
f 794 1063 1103
f 1062 1063 1034
f 1062 1103 1063
f 1104 1105 1106
f 1104 1107 1108
f 1104 1108 1105
f 777 774 776
f 757 1109 755
f 1109 1110 755
f 1110 756 754
f 755 1110 754
f 756 1110 1109
f 758 757 755
f 758 755 1017
f 1017 755 775
f 775 755 754
f 756 1109 757
f 740 1111 742
f 1111 1112 742
f 742 1112 739
f 741 1112 1111
f 741 1113 1112
f 1112 1113 739
f 740 742 739
f 739 1113 741
f 1115 732 1116
f 1114 1115 1116
f 1114 1116 731
f 730 1115 1114
f 1115 730 732
f 731 730 1114
f 731 1116 732
f 729 1032 1117
f 729 1117 728
f 1117 1032 728
f 729 1118 1031
f 1031 1118 728
f 1118 729 728
f 1119 1034 1070
f 1031 1119 1070
f 1067 1152 1059
f 1067 1059 1129
f 789 793 787
f 1049 787 788
f 766 770 771
f 768 1009 769
f 1009 1011 1120
f 750 752 1121
f 750 1121 1122
f 1121 749 1122
f 1122 749 753
f 1121 752 749
f 1018 752 751
f 750 1122 753
f 749 752 1018
f 1023 733 735
f 1022 736 1123
f 1124 864 865
f 1125 867 1124
f 1125 1124 865
f 867 842 1124
f 866 864 1027
f 864 1124 1027
f 867 1125 1026
f 1026 1125 864
f 864 1125 865
f 1027 1124 842
f 839 840 814
f 839 814 838
f 841 839 838
f 841 840 839
f 1126 795 1127
f 795 1061 1060
f 795 1060 1127
f 1127 1060 1126
f 1072 1126 1060
f 1072 1060 1061
f 1069 1128 1064
f 1069 1129 1128
f 1129 1065 1128
f 1128 1065 1064
f 801 803 821
f 804 1131 1018
f 1018 751 804
f 1132 1011 1018
f 1132 1018 1131
f 1133 1132 1131
f 1130 801 1132
f 801 821 1132
f 1130 1132 1133
f 804 751 805
f 845 736 812
f 845 812 851
f 846 751 845
f 751 736 845
f 847 751 846
f 843 803 847
f 803 805 751
f 847 803 751
f 851 812 849
f 812 811 810
f 849 812 810
f 843 844 803
f 1133 1134 802
f 802 1134 801
f 1134 806 801
f 1134 804 806
f 1133 1131 1134
f 1134 1131 804
f 803 801 805
f 805 801 806
f 1130 1133 801
f 801 1133 802
f 849 850 1135
f 845 1135 848
f 1135 1136 848
f 1136 843 847
f 848 1136 847
f 850 1136 1135
f 1136 850 843
f 810 850 849
f 846 845 847
f 845 848 847
f 851 849 845
f 849 1135 845
f 843 850 844
f 844 850 810
f 683 1053 682
f 683 1051 1053
f 682 1053 684
f 1053 1054 1137
f 684 1053 1137
f 683 674 1051
f 1001 674 1138
f 1139 1000 1001
f 1137 1000 1139
f 1137 1054 1000
f 1077 674 1078
f 1077 62 1055
f 1077 1055 674
f 479 62 1077
f 1074 1078 1076
f 1076 674 1001
f 1078 674 1076
f 1001 1000 1076
f 1000 1079 1074
f 1074 479 1073
f 481 479 1074
f 1140 1075 1074
f 689 690 667
f 1140 1074 1079
f 667 690 1074
f 667 1074 1075
f 690 481 1074
f 986 987 1088
f 987 986 1090
f 987 1090 1088
f 986 1088 985
f 977 999 1092
f 1092 999 976
f 1092 976 975
f 674 683 1141
f 1141 683 682
f 1001 1138 1142
f 1137 1139 1143
f 1074 1076 1000
f 1074 1073 1078
f 479 1077 1073
f 1073 1077 1192
f 1140 1079 665
f 1140 665 1075
f 1144 1145 829
f 830 803 1144
f 830 821 803
f 829 828 831
f 831 828 821
f 829 826 828
f 831 821 830
f 1145 1144 852
f 1144 803 852
f 1145 826 829
f 859 923 899
f 859 899 862
f 859 862 855
f 858 810 923
f 858 923 859
f 852 803 844
f 853 852 844
f 853 844 858
f 858 844 810
f 855 862 861
f 855 861 856
f 856 861 826
f 856 826 1145
f 831 832 1187
f 829 831 1187
f 859 855 860
f 856 1145 1146
f 856 1146 857
f 1058 1150 463
f 463 1150 545
f 1058 1056 1150
f 1068 1148 1056
f 1068 1151 1148
f 1 545 1150
f 1 1150 1056
f 607 1056 1148
f 1151 1129 1153
f 18 1149 550
f 1 1056 607
f 1151 1153 624
f 1153 1057 550
f 550 1149 1153
f 1153 1129 1152
f 709 819 703
f 982 1048 708
f 712 704 982
f 712 982 708
f 708 1047 819
f 708 819 709
f 708 1048 1047
f 711 703 704
f 711 704 712
f 798 707 1154
f 798 1154 797
f 707 706 1154
f 797 1154 706
f 797 706 799
f 703 711 713
f 835 836 1072
f 835 1072 1155
f 716 1068 715
f 1155 1072 1068
f 716 1155 1068
f 715 835 716
f 798 821 796
f 796 821 819
f 796 819 1156
f 1157 1011 797
f 797 1011 1132
f 797 1132 821
f 797 821 798
f 800 1011 1157
f 1156 819 1011
f 796 1156 1011
f 796 1011 800
f 800 1157 1158
f 706 800 1158
f 1157 797 799
f 972 702 681
f 971 705 973
f 973 705 974
f 974 705 702
f 974 702 972
f 971 704 705
f 971 972 704
f 972 978 704
f 791 792 1159
f 1085 1083 1090
f 1015 782 780
f 780 785 784
f 780 784 779
f 782 786 781
f 782 781 780
f 780 781 783
f 780 783 785
f 782 1015 786
f 1015 781 786
f 779 1015 780
f 1022 1123 1160
f 1022 1160 734
f 734 1160 738
f 738 735 733
f 738 733 734
f 1160 737 738
f 737 736 1023
f 737 1023 735
f 738 737 735
f 1123 736 737
f 1123 737 1160
f 620 21 618
f 621 22 623
f 623 22 620
f 621 626 23
f 23 22 621
f 615 614 10
f 615 10 28
f 633 4 610
f 616 633 610
f 616 615 632
f 945 1162 1167
f 946 1161 948
f 948 1161 936
f 1164 1163 952
f 948 1165 946
f 952 1163 948
f 930 952 948
f 944 1166 942
f 945 1167 943
f 951 944 942
f 887 893 892
f 1168 885 922
f 884 1171 1169
f 1169 1171 1168
f 1170 1171 884
f 922 884 1169
f 922 1169 1168
f 1162 945 1174
f 1167 1161 946
f 1167 1174 1161
f 936 1174 945
f 1161 1174 936
f 1167 1162 1174
f 1166 944 1167
f 1166 1167 1175
f 942 1175 1167
f 1167 1176 943
f 1176 1167 944
f 943 1176 944
f 942 1166 1175
f 1165 1163 946
f 946 1163 1164
f 947 1164 952
f 947 946 1164
f 1163 1165 948
f 970 946 947
f 922 1173 1172
f 886 1172 1173
f 886 1173 874
f 874 1173 893
f 885 1168 893
f 885 893 1173
f 922 885 1173
f 892 893 1168
f 1171 1170 1177
f 892 1177 876
f 876 1177 1170
f 1168 1171 892
f 892 1171 1177
f 1041 1045 792
f 1105 1108 1039
f 1039 1108 1036
f 1035 1178 1040
f 437 1106 1037
f 1046 1041 1179
f 1104 1106 437
f 1104 437 1180
f 1104 1180 1178
f 1104 1178 1035
f 1104 1035 1107
f 1037 1106 1105
f 1037 1105 1038
f 1036 1108 1035
f 1108 1107 1035
f 1040 1178 1180
f 1040 1180 437
f 1038 1105 1039
f 1042 1046 1181
f 1045 1159 792
f 1045 1043 1159
f 789 790 793
f 793 790 787
f 790 788 787
f 1086 1047 1049
f 1086 1049 788
f 790 1086 788
f 789 1047 1086
f 789 1086 790
f 791 1159 1043
f 791 1043 1042
f 791 1042 1181
f 791 1181 1046
f 791 1046 1179
f 791 1179 1041
f 791 1041 792
f 1009 1120 1182
f 1009 1182 769
f 769 771 768
f 1182 767 766
f 1182 766 771
f 769 1182 771
f 1120 1011 1182
f 1011 767 1182
f 981 980 1091
f 981 1091 982
f 981 982 975
f 999 981 975
f 999 975 976
f 1088 1083 1089
f 1088 1089 1084
f 1088 1084 1087
f 1088 1087 988
f 978 980 981
f 999 978 981
f 1139 1001 1183
f 1053 1082 1184
f 1053 1184 993
f 993 991 990
f 993 990 992
f 1184 1185 993
f 1185 994 989
f 1185 989 991
f 993 1185 991
f 1082 1081 1185
f 1082 1185 1184
f 1185 1081 994
f 1053 1051 1081
f 1053 1081 1082
f 775 1093 1186
f 775 1186 774
f 774 1186 776
f 776 778 1014
f 776 1014 777
f 1186 773 776
f 773 772 1014
f 773 1014 778
f 776 773 778
f 1093 775 773
f 1093 773 1186
f 775 772 773
f 1157 799 1158
f 799 706 1158
f 798 796 707
f 829 1187 1188
f 829 1188 1144
f 1188 830 1144
f 1187 832 830
f 1187 830 1188
f 709 1147 708
f 708 1147 710
f 1147 713 710
f 713 712 708
f 710 713 708
f 1147 709 713
f 709 703 713
f 1145 854 1146
f 854 860 855
f 854 855 1146
f 1146 855 857
f 853 858 860
f 853 860 854
f 1145 852 854
f 972 1189 974
f 974 1189 973
f 1189 971 973
f 972 971 1189
f 452 1052 1191
f 997 1190 995
f 995 1190 996
f 996 1190 998
f 996 998 1052
f 996 1052 995
f 1191 1052 998
f 1190 1191 998
f 997 452 1191
f 997 1191 1190
f 1192 1078 1073
f 1192 1077 1078
f 1193 1194 628
f 629 1193 628
f 629 628 621
f 631 619 1194
f 631 1194 1193
f 631 1193 629
f 622 1194 627
f 627 1194 611
f 611 1194 619
f 621 628 1194
f 621 1194 622
f 613 631 612
f 612 631 629
f 978 972 681
f 679 978 681
f 679 681 1195
f 679 1003 978
f 686 676 675
f 686 675 685
f 685 675 687
f 687 675 677
f 677 675 1005
f 1196 681 669
f 1196 669 676
f 1196 676 686
f 1195 681 1196
f 677 1005 634
f 677 634 1003
f 677 1003 679
f 680 679 1195
f 684 1137 1197
f 677 679 1198
f 1195 1196 680
f 687 677 678
f 677 1198 678
f 1198 687 678
f 1138 674 1141
f 684 1197 682
f 1197 1141 682
f 1141 1197 1142
f 1141 1142 1138
f 1142 1197 1139
f 1142 1139 1183
f 1001 1142 1183
f 1197 1137 1143
f 1197 1143 1139
f 680 685 1198
f 1198 685 687
f 679 680 1198
f 1196 686 685
f 1196 685 680
f 818 819 820
f 959 955 1199
f 956 818 820
f 956 962 818
f 965 930 964
f 930 937 964
f 965 931 930
f 969 955 931
f 969 931 965
f 1199 955 969
f 1199 954 959
f 964 954 1199
f 955 960 820
f 956 820 963
f 956 963 962
f 962 963 954
f 954 963 959
f 1200 1199 969
f 1200 969 965
f 964 1200 965
f 964 1199 1200
f 835 1155 716
