v 4.70658159 44.83926773 7.66563797
v 7.18432808 43.41644669 9.30272388
v 7.06306458 41.45787811 12.12790966
v 5.29121208 50.52926636 21.14032555
v 8.38172722 47.52100372 20.46908760
v 10.47141933 49.50179672 31.87596130
v 10.97935772 51.18587112 29.90185547
v 7.28913593 50.06153870 34.07024384
v 7.25960922 51.55162048 32.26259613
v 7.74535227 47.36341476 33.30892944
v 11.84675503 49.97311401 24.35107994
v 11.74574852 47.48724747 23.09925079
v 12.13475513 46.99870682 29.56069756
v 10.77625656 45.94757080 23.98282433
v 7.81247568 44.62502289 29.48867798
v 3.00481963 40.46774673 15.84766102
v 4.00993395 37.05858231 11.08968258
v 6.62940407 38.38701248 9.39400768
v 6.52668858 44.73650360 30.78378487
v 5.34002256 43.51621246 23.88684464
v 7.39352989 44.08699799 23.64409447
v 13.88357925 48.58288956 29.54278755
v 13.77615070 50.31865311 27.17261505
v 6.36271477 52.44707489 29.04058838
v 11.41611099 -35.43011093 -16.74992371
v 11.78820705 -37.19153214 -16.38682938
v 11.48977661 -37.61431122 -15.26203728
v 10.79593277 -34.57244873 -12.82982349
v 11.32431221 -35.18268585 -15.31255436
v 6.57522869 -46.30416489 -25.64530373
v 3.91546178 -45.85147476 -26.58503914
v 7.40325022 -45.16095734 -25.07434082
v 9.90347672 -41.86383820 -22.63854599
v 7.54895496 -40.69182587 -25.06515884
v 3.38990688 -40.86269760 -26.82372665
v 10.89279175 -44.25404358 -21.02550507
v 10.28614426 -47.48909378 -20.56610298
v 7.68784523 -51.01230240 -20.53511238
v 8.09548283 -49.73917770 -22.76443100
v 6.23326159 -51.69580078 -18.20139313
v 3.95159960 -47.63846970 -25.40585899
v 5.99953604 -46.41774750 -24.77304459
v 1.48736882 -45.89025879 -22.88391495
v 8.88473511 -47.06537628 -22.95578194
v 5.77311516 -44.19436264 -23.58362389
v 5.39375019 -52.10069275 -16.57443047
v 11.03987408 -44.95457840 -16.00258064
v 8.07045841 -48.72711945 -15.31245899
v 9.32705593 -48.72160721 -16.17499733
v 6.47223663 -35.27486801 -25.24923134
v 1.97947907 -37.46283340 -26.97680092
v 3.54284215 -37.33586121 -8.25022984
v 4.15264559 -36.84446335 -7.45123339
v 2.87668729 -34.76989365 -7.77915573
v 4.46479464 -35.43472290 -7.36987162
v 9.71691227 -34.29813385 -22.82744789
v 11.49154949 -33.17311096 -22.12448883
v 11.18603325 -31.19425201 -21.46429253
v 9.84341812 -30.45508766 -22.18244553
v 9.51965714 -32.89071655 -7.29251289
v 10.98458099 -32.92148972 -7.20903349
v 8.81376076 -32.17988586 -9.65106010
v 7.23898268 -32.79579544 -9.30117893
v 11.76086235 -32.22410583 -24.11729431
v 12.52656841 -32.18252945 -23.52055168
v 10.41731834 -34.15305710 -22.48798561
v 9.77752876 -41.15786743 -11.35982132
v 12.47467041 -30.80079460 -23.85470009
v 11.67665672 -30.30384445 -23.71298981
v 10.99195671 -31.09465790 -24.04118729
v 11.28841019 -40.90563583 -19.54328346
v 11.88672829 -40.96417236 -14.19210339
v 7.95328426 -49.99307632 -16.32350540
v -1.65791988 14.11552715 -21.09883499
v -0.49980676 7.20238304 -24.03627586
v 3.89728713 -1.46898639 -24.50872803
v -2.79917574 -2.36023879 -26.15472031
v 7.42418528 -13.27350330 -24.39739418
v 3.20632529 -13.31146908 -25.92601967
v -1.74318862 -11.58065510 -26.68139076
v 7.86299133 -19.11349106 -23.11793709
v 4.70127583 -21.84150505 -23.75735855
v 0.40454277 -21.64688301 -25.11156273
v 9.05960655 -23.79934883 -20.32438660
v 15.58340454 -19.04022217 -10.69572353
v 16.62201118 -18.60607147 -11.36205864
v 16.17341614 -18.17116928 -9.83665085
v 10.34047508 -26.22863960 -15.93886375
v 11.66114426 -24.43060875 -15.63277817
v 11.87320805 -25.68732071 -16.34039879
v 12.47901535 -24.91507912 -16.68430138
v 1.70134270 30.53293419 -12.07661152
v 6.40800333 26.44445038 -12.94007301
v 9.38846588 28.57922173 -6.56215382
v 10.18988323 25.93362427 -7.43999386
v 6.23337221 6.46048498 6.59821367
v 5.13661861 8.33646679 8.59303188
v 2.01655746 10.75711918 7.21239233
v 4.31547403 10.13605595 8.27253628
v 2.26017928 6.95838118 8.41126060
v 3.76732445 7.30557251 9.21124744
v 2.32898760 15.49512672 5.70500612
v 2.23804355 18.77250290 4.84999418
v 3.67922211 18.26366997 5.42799282
v 4.26831913 17.89282608 4.64272976
v 9.25461483 15.79012108 2.18779993
v 8.16506386 19.51110840 1.43344319
v 7.37000465 17.17048836 3.06835032
v 9.07114506 17.15407181 2.18572307
v 10.33979893 10.09526062 4.19697428
v 9.60385799 7.42254639 5.38743210
v 10.86941433 6.87247467 5.03468037
v 12.81503201 9.37627983 1.39464831
v 17.30049324 -3.68544936 -1.61447489
v 18.49274445 -2.64337778 -0.11227351
v 16.31250191 -2.77341151 0.24765868
v 17.94114304 0.12006244 -2.97693515
v 15.83787346 -0.90614003 0.74655044
v 12.89121056 -2.51666546 3.40512276
v 8.95928383 -2.44472694 5.59825277
v 10.40997887 -4.36592007 4.33610058
v 12.21410942 1.18625772 3.59576750
v 11.18269539 -2.97380018 5.16055346
v 2.18270898 -0.79716188 8.38781929
v 3.49773884 -1.12802768 9.29277992
v 4.60179281 -0.37810689 8.89309502
v 2.52718759 -4.19167423 7.93096972
v 4.28448296 -3.50454521 8.45943069
v 5.44762087 -4.28841925 6.67334652
v 5.26047802 -2.08322144 8.64624596
v 16.04520416 -12.95545197 -5.47938204
v 17.87096214 -10.77445984 -3.47522616
v 15.54880047 -8.18033028 -1.87595713
v 17.43473625 -10.76353264 -1.77263272
v 16.47282791 -8.54792118 -2.59511399
v 17.84706497 -9.76727009 -2.42436028
v 14.27745533 -12.33100796 -2.35056567
v 17.36698151 -12.06777096 -2.48018432
v 10.73976326 -8.90683937 2.84875631
v 7.98286247 -14.13301468 1.79165208
v 10.24243069 -13.00034618 2.41403866
v 12.19036293 -9.79420567 1.28778505
v 8.84642982 -10.21949196 3.51259351
v 9.96938324 -11.12297726 3.56268311
v 1.06563985 -10.56033421 6.45716238
v 1.62682068 -13.99697876 5.06382132
v 3.07167077 -13.07216358 6.42268276
v 4.17290735 -12.36869621 6.28228140
v 2.12814140 -11.94080544 7.05975056
v 13.50109863 -20.54963493 -8.92750454
v 15.27948093 -19.67571068 -6.75813389
v 11.98034477 -20.22955894 -5.62645721
v 13.15466976 -21.11521530 -7.94395733
v 14.91492176 -21.23915291 -5.99570608
v 15.23508072 -17.01276970 -7.42549515
v 10.36258411 -19.08759880 -1.71303356
v 7.37979841 -19.70351601 -0.19434589
v 7.93962574 -17.29338837 0.17968799
v 8.78893185 -21.52944946 -1.12894917
v 6.06138134 -20.49415016 -1.42549717
v 2.58777428 -18.77692986 2.33409262
v 2.15631509 -19.86267090 2.79372525
v 4.31378889 -19.20448875 0.49158010
v 3.21490574 -21.90876961 -1.17493546
v 10.62006378 -25.74528694 -10.12552261
v 10.67801762 -23.81064034 -8.91457462
v 8.69319344 -26.16034889 -4.93736887
v 8.87217522 -25.42552948 -5.92964268
v 8.16026306 -25.29993057 -4.56782579
v 12.36109352 -25.55117798 -9.29079247
v 2.20387340 24.47078133 4.68178129
v 9.32315350 24.30838013 -1.97554266
v 16.82686806 -16.66793823 -10.76249218
v 15.43855667 -17.92392540 -9.63250923
v 18.68911743 -10.35602283 -11.01195812
v 20.14935875 -10.41617298 -8.20179939
v 17.69457245 -12.67376804 -9.03667927
v 20.54099846 -9.70955276 -8.94480801
v 14.40389633 17.04025269 -5.39418793
v 18.05118561 14.04958725 -5.82909584
v 19.43441010 1.97371936 -11.11848164
v 16.97374725 9.58552647 -3.86350322
v 11.68434238 19.93737030 -3.40888476
v 16.10420990 17.71758842 -7.68549967
v 19.67248535 11.76899815 -5.94060946
v 11.93891907 -23.14260101 -15.20529747
v 12.02949619 -22.20859909 -20.12277985
v 13.87388992 -22.42068481 -17.86202240
v 14.18929577 -20.68881035 -13.24253082
v 15.44039154 -20.95182991 -16.20528412
v 15.98762417 -17.72071648 -12.33923626
v 10.80946922 -13.77238369 -22.98600006
v 16.63103485 -5.40925026 -18.06584358
v 15.18384743 -9.05744457 -20.45229530
v 16.94550705 -10.74013138 -18.77937889
v 17.66198540 -12.41828251 -17.85767555
v 18.69907951 -8.95341206 -15.33684540
v 18.55319214 -11.83009624 -14.31729603
v 19.27041626 -9.87093258 -14.15175629
v 18.40406990 -11.47405624 -15.94745445
v 9.36339855 16.58226395 -17.59498978
v 13.57377052 11.51144600 -17.36015511
v 10.69290924 22.74664497 -11.04060459
v 14.02280235 19.09266472 -9.54131699
v 11.72226143 21.47609901 -6.27737379
v 14.07032108 15.45918846 -2.76914907
v 13.40041351 16.57645798 -1.50089478
v 13.63437366 18.03859329 -2.20698333
v 11.39119720 17.66754341 -1.04249454
v 11.98616600 19.03137589 -1.56841946
v 16.55201340 10.08021832 -2.39421511
v 15.53180695 11.39366913 -1.77577603
v 16.95124817 10.17033863 -0.05713733
v 21.81018448 -2.25028896 -7.98046446
v 19.20092201 -2.23083067 -5.96581745
v 19.87460518 -3.12528968 -8.44400787
v 21.61454964 -2.55022025 -6.92678118
v 19.49586678 0.91334140 -7.98407841
v 19.07727623 0.89700991 -6.00972033
v 21.65137863 -0.58856708 -7.68332434
v 19.81492996 -3.43103528 -13.15102673
v 19.50602341 -1.44078457 -15.13690090
v 18.30416107 -0.02685881 -16.08103371
v 13.59432411 2.02458906 -19.97305298
v 16.47883224 5.83967113 -0.28245452
v 17.13676071 5.50267935 -2.12621927
v 17.53699684 7.01488352 0.32744688
v 14.79083824 9.63144302 0.68163246
v 16.24092865 8.38420391 1.17049885
v 17.96897697 12.31485271 -23.20765114
v 24.47977448 12.59157848 -29.02236366
v 23.14278030 13.57619667 -26.57045555
v 21.68509865 13.93997669 -27.72678947
v 22.00649452 13.37729454 -23.97582054
v 24.69578171 7.14841890 -23.70572090
v 24.09108162 5.12447596 -25.37505341
v 20.39785576 4.83805704 -28.30948257
v 18.29269981 12.61668205 -27.63034630
v 16.89139366 7.95693159 -27.48448181
v 25.64600945 10.63281250 -28.13266754
v 20.05800056 13.72276211 -25.22101212
v 18.88212013 12.21628189 -32.97614670
v 22.06326485 3.52373862 -32.89236069
v 25.74000740 8.33071423 -33.87285995
v 24.22265053 12.05575085 -32.94107819
v 18.06271744 11.01887989 -33.57696915
v 19.13960838 3.75160170 -33.47048950
v 23.15429497 10.55918789 -18.85661507
v 19.68783379 1.37488985 -19.42542076
v 20.86897278 1.22173893 -17.53066826
v 15.03028488 7.76782370 -20.03163338
v 16.43016243 2.89850783 -20.22649765
v 19.08137512 12.40898991 -19.73498535
v 18.95382881 12.73085690 -17.07017326
v 22.02470016 11.22342873 -18.69032860
v 23.09987450 3.68853664 -14.81233406
v 16.63466072 17.43708229 -9.95475006
v 18.46100998 16.26103210 -8.54640102
v 20.20008087 8.56694031 -6.55448389
v 19.50502205 9.72921181 -5.56041574
v 20.19305420 12.54418278 -7.11016035
v 20.95568275 12.55584240 -10.11642456
v 15.72804832 16.34023094 -12.63141823
v 15.43417454 11.11610699 -18.26379395
v 21.21492195 12.81921768 -33.47845840
v 17.51031876 8.24799633 -34.07294083
v 24.49719238 10.07212448 -33.66221619
v 19.37018204 5.45271254 -7.56154680
v 17.63863945 -7.46458435 -25.29566765
v 17.01263809 -7.87155819 -31.07951736
v 15.97701740 -8.03649902 -22.48764992
v 20.39370728 -13.12599850 -27.95376968
v 13.74772453 -15.22763538 -30.11490822
v 16.03945160 -16.59263420 -25.35281944
v 13.68401909 -8.91830730 -29.33984184
v 12.73262882 -11.85180855 -28.65139389
v 11.60030842 -12.16674423 -23.45832634
v 20.40835762 -10.32522774 -25.31153107
v 19.66039848 -10.31641960 -22.79816055
v 18.53866959 -16.05440712 -24.41702080
v 16.00771904 -7.18335962 -25.84115791
v 14.13764286 -8.32831764 -22.89854622
v 16.42398453 -8.19278145 -33.69420624
v 15.28715611 -8.23951817 -31.79015160
v 13.73408794 -9.34825134 -33.35653687
v 12.52217579 -14.55302143 -33.12875366
v 12.96534729 -16.40095901 -32.42961121
v 16.93537903 -16.57235146 -30.33940125
v 20.90349579 -13.85499573 -33.69371796
v 20.42522430 -10.38798618 -33.46148682
v 20.41525650 -10.14976215 -29.95477676
v 19.52377701 -9.50907898 -33.91765594
v 19.26487160 -8.54238224 -29.78332901
v 15.08297539 -20.10399055 -22.25022125
v 16.35850716 -19.32938576 -22.47908592
v 17.72885895 -17.69770622 -17.82892990
v 17.38221550 -19.20851707 -20.67479897
v 17.50438690 -20.57555771 -18.48920250
v 13.21379280 -18.56449890 -23.38238907
v 12.40524292 -10.31216621 -22.31253052
v 17.72157860 -20.17309570 -19.40891266
v 19.65566635 -13.90190125 -23.00930786
v 17.38920784 -9.77536488 -20.75644875
v 11.54556847 -15.60661888 -23.63657188
v 18.94346046 -16.67790222 -21.67801094
v 19.13779068 -12.19952869 -21.11784744
v 13.16417217 -10.67105961 -34.15467834
v 18.29499054 -17.12257957 -34.02404022
v 18.18576813 -10.42445087 -34.30014801
v 3.78779936 -29.35122490 -25.09670639
v 8.24654007 -27.70564461 -22.49518585
v 8.34293365 -29.88293648 -22.20136261
v 7.04814768 -26.80520058 -23.24429131
v 10.79061604 -27.39484596 -19.38063431
v 10.16553211 -28.54845619 -19.91247368
v 10.90270710 -28.37928963 -17.18073273
v 11.01057911 -27.65259171 -13.57073784
v 10.83440781 -29.21354294 -14.80311489
v 10.55203533 -29.10337448 -12.23300076
v 8.35150909 -28.53266335 -9.84089184
v 6.50465298 -29.27694702 -8.14773750
v 4.20986462 -31.14111137 -7.62715626
v 2.24442577 -30.26324081 -6.59606123
v 2.58090854 -30.71242905 -5.59825945
v 12.18946457 -28.39898682 -19.22200203
v 11.73571110 -37.97148895 -12.11943436
v 11.20094299 -35.42070389 -9.03766918
v 9.70581436 -36.28767776 -9.39282322
v 10.38777447 -31.22011375 -14.90471363
v 10.00990486 -30.45507622 -19.51573753
v 11.14071083 -35.27083969 -18.95583534
v 11.53050900 -36.67256927 -14.69447517
v 11.90005493 -36.35649109 -16.07821274
v 13.52855778 -17.06882286 -4.68436193
v 11.64958954 -16.26433563 -2.44068527
v 10.26749802 -22.20324707 -7.72127962
v 7.85352325 -21.78734207 -3.62559509
v 10.55908203 -19.25943756 -3.82741070
v 0.59206903 -18.05375862 2.59562588
v -1.15169883 -15.98012447 4.00687981
v 0.05610551 -22.72675133 -1.63683784
v -0.29511294 -6.41075468 7.53380585
v 4.69582081 -10.63153267 5.28864193
v 2.52194142 -15.10984612 3.74610186
v 14.30415821 -4.99043179 0.33784744
v 8.68978310 -12.83808517 2.80315185
v 17.66987419 -8.52758503 -6.62565947
v 0.10995643 3.38537312 8.42588520
v 6.85693121 1.71438956 6.57411480
v 15.83446312 1.43126190 0.04664624
v 17.43924522 -3.72773623 -3.49679089
v 0.24940309 13.00319099 6.51123238
v 4.60192251 10.85872746 6.52871084
v 14.86976433 6.50127935 0.84689623
v 16.92529869 8.59695530 -2.21590114
v 5.30433464 22.20284271 2.82802677
v -0.34911856 20.37494278 4.58591032
v 6.68305254 26.31150436 1.39148903
v 0.67233694 -25.06171417 -3.25517344
v 3.24866486 -24.86416054 -4.08050013
v 0.81210369 -27.86830330 -5.05163717
v -1.22161949 -28.58665466 -5.87819481
v 5.34549904 -27.89075470 -7.96244144
v 3.56509566 -26.64474297 -5.33937073
v 0.02089330 -26.62678146 -3.84794855
v 6.12939310 -24.01602173 -5.04534388
v 8.61741352 -24.50089264 -7.22522497
v 7.22031307 -26.51590729 -7.78593540
v 9.26111698 -26.33355141 -10.75693035
v 11.98370457 -23.67444801 -11.30784988
v 10.82823372 -25.75371933 -11.97485065
v 1.81741941 -32.28779984 -7.14584970
v 5.49950695 -32.45842361 -8.91279030
v 7.97788334 -30.53895378 -9.68262768
v 9.66034126 -30.81415749 -12.03064442
v 5.07500553 -34.34712601 -8.71686459
v 5.90406513 -37.14995575 -9.37612629
v 7.10982466 35.85903549 -2.42521596
v 8.29264450 31.23229599 -0.47947344
v 1.95383072 26.51598930 4.71585798
v 2.70247555 37.88365555 -3.97929025
v 8.69501972 26.69640350 -1.22019446
v 9.49801350 26.71183014 -1.66946304
v 1.82173932 34.54697037 -8.34409618
v 3.58960128 22.86701584 3.75197029
v 5.64638948 28.41509819 3.88896084
v 8.10407352 31.06969452 1.97921574
v 6.15371752 29.68630791 3.65370178
v 8.40746975 30.12323761 0.43983766
v 3.46595788 24.59481621 3.93072510
v 6.99320316 24.21566010 1.39544666
v 9.55292130 26.41314507 -2.78274465
v 6.60602570 -41.48942184 -10.08831120
v 4.59014034 -42.39349365 -9.51666737
v 9.82142448 -39.78075027 -10.97821903
v 4.93201065 -47.38315582 -12.26856232
v 4.71720886 -40.51365280 -9.26020527
v 3.77254438 -36.25558090 -7.22585726
v 4.90424490 -35.99805450 -7.66301489
v 8.75454330 -30.36530685 -8.30213833
v 11.05601215 -30.03608894 -13.46720123
v 10.56233406 -29.50391006 -18.63249397
v 13.10860538 -24.55851555 -10.74481869
v 12.69708443 -25.80713081 -10.50291920
v 12.32621861 -29.14919662 -13.48510551
v 12.40759277 -28.83613396 -12.38490295
v 9.67769241 -19.78391647 -0.18107529
v 3.48695660 -11.13972378 7.06786060
v 4.72823191 -10.77370262 6.19771433
v 3.31940198 -2.63675570 9.03770256
v 5.55998802 -0.71105683 8.16315937
v 3.35561967 9.19619942 8.97200775
v 4.82676077 6.52134323 8.46137905
v 5.18288183 9.67308521 7.65166187
v 3.99767733 15.66917038 5.40830421
v 3.07608604 23.66569328 4.62102222
v 2.71615887 -27.34930229 -2.69993925
v 2.48964691 -27.99385262 -3.75402737
v 3.39587903 -27.22061539 -3.72427392
v 2.86680603 -26.28466797 -2.75627017
v 11.25723076 -11.17502022 2.68330812
v 11.19433498 -0.35417077 5.05090952
v 11.78355885 -2.00733685 5.10599661
v 10.59974957 8.55598450 5.17371893
v 15.27284622 -19.44687271 -5.07459068
v 18.07678795 -0.52358323 0.51634234
v 18.92424965 -2.38223147 -1.18166304
v 18.85710716 -0.29958916 -0.40596461
v 17.73556328 8.53729343 -0.13497047
v 16.99654961 7.48954439 0.96180284
v 9.94185448 25.57180214 -1.85039353
v 18.95943069 -4.14084339 -11.13326645
v 18.45734978 -7.31950808 -8.92678547
v 19.60097122 -0.29646897 -9.79801083
v 20.35156059 -11.19550896 -9.87687874
v 20.82136726 -10.63004398 -8.71217728
v 21.49853516 -0.98402584 -6.22741508
v 22.02385712 -1.75366819 -7.08149958
v 10.39028454 -33.11287308 -10.29057598
v 8.25972366 -35.68449020 -8.84649944
v 12.11209869 -28.67540550 -18.50730515
v 10.34461975 -35.25006485 -7.40573454
v 11.85745525 -33.51925278 -8.06127357
v 18.58340073 -7.75234795 -13.99738789
v 18.83741760 -4.84116173 -14.89779472
v 20.05397606 -0.96168762 -12.86034393
v 20.12413216 -4.18434763 -14.47938728
v 4.56682396 41.29883957 1.03837204
v 2.62139034 41.57030869 0.21605380
v 5.67727137 32.78487778 5.94236326
v 2.51663876 30.47871017 6.63262415
v 10.98412323 -24.59131050 -18.16908836
v 17.28017044 -17.77682877 -10.29556656
v 9.87138081 27.45050049 -6.01837683
v 15.92609406 -16.54117584 -9.40211773
v 8.14670277 -27.27406693 -23.01509666
v 7.84199858 -26.75298119 -6.12671709
v 1.59307814 -20.58722115 2.36207533
v 2.21964002 -21.87985611 1.50078940
v 3.04992175 -20.94638252 2.05778623
v 18.94012642 -1.66809380 -0.12620239
v 17.67387009 -17.79483986 -33.00139618
v 16.34815979 -18.30877304 -34.07398605
v 20.60540390 -16.09400368 -32.58786392
v 19.20120811 -16.65740585 -32.58777618
v 14.43693924 -17.12807846 -34.03662109
v 14.43500042 -17.07249641 -32.92557526
v 20.87922859 2.83496571 -33.97392654
v 18.92590714 3.92821312 -34.21751022
v 17.20303535 6.31768274 -32.66541290
v 17.04250717 4.95897961 -33.78758240
v 25.70634079 5.65670681 -33.83168793
v 23.29157448 3.64886308 -34.18507004
v 16.52442932 -17.87971687 -32.68785477
v 12.38268471 -16.37639999 -34.07669830
v 20.69270325 -16.44917297 -33.67850113
v 25.14278221 4.28398991 -33.85489655
v 17.27171707 5.16092205 -33.00264740
v 1.11294019 -26.88740158 -2.46432996
v 7.25217438 -25.56492233 -4.56516695
v 13.22801399 -25.30640984 -9.62196445
v 15.58642960 -20.66205406 -5.75559759
v 8.80581570 -29.65733719 -7.78263664
v 9.27740288 -20.67475128 -0.37832412
v 19.49854088 -10.54075336 -15.19053459
v 12.27815247 -25.36290169 -17.98115540
v 20.90604591 -2.69364285 -14.26753807
v 7.58998203 -27.55662537 -23.71047401
v 3.44060159 -31.27760315 -5.69079828
v 2.70709777 -31.69167709 -5.59050512
v 13.69903183 48.00751877 25.42234993
v 14.31942844 48.55871964 28.28334236
v 13.86472702 49.09765244 24.73598480
v 13.83586788 49.90789795 29.24798965
v 8.99588966 -30.82097816 -22.89305496
v 9.31446362 -31.88315201 -23.54971313
v 18.42911720 -17.78409386 -22.35084724
v 19.49475479 -16.87096596 -23.15773010
v 1.04327285 45.24288940 8.43543434
v -0.70794654 43.37159348 13.72726250
v 0.84210408 47.30075073 16.43605042
v 2.23363972 49.84721756 22.72795677
v 0.88874948 46.15137482 22.78631592
v 3.45559931 49.28790283 33.24917603
v 0.93473500 50.30896378 31.91580200
v 3.83806157 51.39364624 31.49986458
v 5.76497173 49.85160065 34.36954498
v 5.60711622 47.98983765 34.02958298
v -1.15862381 48.90981293 25.56639671
v 3.44203663 46.10989761 32.33205032
v 0.65197778 46.31463623 31.02129745
v 0.06171884 45.86734009 25.28286934
v 5.18048573 44.67601395 30.84099007
v 1.11559629 39.06900787 12.96257210
v -0.15631139 41.83686829 14.51963425
v 2.99019098 43.81364822 22.79700089
v -1.12236655 45.85941696 29.69939995
v -1.56104696 47.76922226 31.60653687
v -0.78367001 49.95977020 29.40646744
v -2.10379553 49.24666977 28.77930641
v 3.41412616 51.77404785 28.17475510
v -6.45897102 -43.73856354 -17.15898514
v -7.65016985 -41.71810532 -17.53114319
v -6.70532703 -42.86369705 -14.65790272
v -8.00072956 -39.96044540 -14.59537411
v 1.69338191 -45.47909164 -26.38066673
v 1.43340135 -47.79959106 -25.37569427
v -0.35910940 -46.43649292 -25.31046486
v -2.71641970 -45.63505173 -23.15962219
v -1.60450435 -43.43439865 -25.31938362
v -3.39340639 -48.23928452 -20.54503441
v -0.55652773 -51.23799896 -21.57912827
v -2.04760289 -49.30562973 -22.35771561
v 2.56016016 -52.39365387 -20.97027206
v 3.96895385 -51.94561768 -22.74061203
v 0.09956574 -46.86356354 -24.74078560
v 1.18802190 -46.48440170 -24.28514481
v -0.39192876 -45.39912796 -23.15279388
v 1.47497892 -50.60958481 -23.15154266
v -0.31530520 -50.14022827 -22.94386292
v 0.25882944 -51.61269760 -22.39172173
v 0.24519597 -51.79945755 -18.52281189
v -1.35760391 -51.02578735 -17.02044487
v 3.36165500 -52.32700348 -17.10680008
v -2.86036801 -49.87011337 -18.70463943
v -3.63051629 -48.72018433 -16.80623055
v -0.05603144 -50.44781494 -15.69234371
v 0.85525864 -51.53600311 -16.64645386
v -2.82337284 -39.31865311 -25.55206680
v -0.77005088 -35.26560593 -7.42819166
v -2.60371900 -35.51302719 -8.26333046
v -1.56813526 -39.00354004 -9.12903404
v -5.15546370 -43.33831406 -22.23192215
v -5.81097078 -38.30307007 -23.90767860
v -9.14145947 -37.62289810 -22.11808014
v -10.73144245 -37.22857285 -23.25725937
v -9.99683285 -34.74786377 -21.82774162
v -10.61898136 -35.40689850 -24.01561546
v -6.99831486 -33.94221497 -23.47528458
v -8.17681122 -36.60065460 -7.48188210
v -5.91431856 -35.98005676 -8.89890099
v -8.41560364 -35.92863083 -9.10817623
v -9.17146206 -37.06752014 -24.10817146
v -7.28735209 -37.24626541 -23.59776688
v -8.81247139 -37.87477875 -23.15620232
v -5.71710920 -45.38999176 -18.22479820
v 2.16798282 -51.65343094 -16.06373405
v 3.80287719 -50.72750854 -14.64259052
v -3.54765081 29.27605820 -11.55135345
v -5.97337627 16.68788528 -19.59795189
v -13.44656563 -5.68443775 -23.63695908
v -4.05890894 0.41465372 -25.67319489
v -10.50937843 -10.97243881 -24.64268684
v -4.42153311 -7.73244381 -26.53296661
v -4.66992617 -16.51738548 -25.52546692
v -8.52877903 -22.53303528 -23.06897354
v -2.17253184 -30.74712563 -25.90498734
v -13.50984478 -24.45275688 -17.85842133
v -10.66638565 -29.19051552 -20.06916237
v -8.15041351 -26.82375336 -22.86259460
v -19.25931549 -17.33155632 -9.71183586
v -19.65539742 -16.96920395 -10.83500099
v -13.59826088 -27.23509026 -16.22056389
v -14.69445896 -24.98511314 -15.57727146
v -14.99093723 -27.02016068 -16.51889992
v -12.89982700 -26.79154587 -18.30628777
v -14.68115807 -26.82000923 -17.76263618
v -9.53429699 24.83414268 -9.75154972
v -7.98811531 29.27117157 -5.91327190
v -5.52190399 7.34856033 7.50211382
v -5.56670237 9.42902660 6.54914808
v -2.89680552 11.66604042 6.63415813
v -1.86241341 8.13341904 8.47123337
v -2.34361100 6.38411474 8.43408108
v -1.93957508 18.39825821 5.65723991
v -1.38883841 18.71083450 5.04049587
v -3.06903768 17.01878548 5.71510124
v -1.07320416 16.04940414 5.70887423
v -7.05574846 20.02584076 1.83246243
v -8.08654881 18.44610214 2.20888829
v -10.74196148 11.90609646 3.66111970
v -9.18617439 8.14761066 5.45953703
v -12.03239250 8.31651783 3.85100532
v -16.83717728 -1.13666248 0.27556744
v -20.22908592 -0.45936298 -1.07749927
v -19.46959496 2.41774464 -3.21140885
v -20.61469841 1.31987214 -1.34994161
v -19.64352226 0.19774254 0.22162434
v -13.81377697 -1.47185910 2.76049495
v -10.03501892 -2.10417724 5.52611399
v -13.16197681 1.90252793 3.79939151
v -12.17514706 -1.65537620 5.27453852
v -5.97935867 2.49946547 7.16835928
v -2.04183650 -2.77792048 8.33518314
v -5.90373039 -3.38487935 7.09468794
v -6.88463926 -0.23255810 6.82667923
v -18.56023216 -10.95287991 -4.69597435
v -17.22978401 -6.05097151 -1.47553968
v -19.07282257 -4.98513269 -4.10954571
v -19.84996223 -7.82999849 -2.45011497
v -16.81969643 -10.89037037 -2.05318165
v -12.64411449 -12.23023701 1.55830193
v -11.87480736 -11.68441772 3.01542878
v -13.87646008 -9.88331223 1.02702522
v -10.54343510 -8.83703709 4.01687908
v -9.46710110 -10.54328442 3.81571984
v -5.12452269 -8.47914696 6.16479540
v -6.73159266 -11.31926727 5.03336525
v -3.19055343 -12.63352871 5.95139170
v -4.26882935 -12.02161407 6.99824238
v -16.85415459 -19.12854004 -8.03523064
v -18.18380928 -18.07298279 -6.15708637
v -14.80672264 -20.64574242 -7.07699490
v -17.68547630 -19.47413635 -4.89342976
v -17.69619179 -19.97994614 -6.02601290
v -12.99409294 -18.14124107 -1.83691549
v -12.87002373 -19.64486504 -0.91157722
v -9.73167133 -19.44913673 -0.46282548
v -10.30754948 -16.85183334 0.46818703
v -9.91917133 -21.10371017 -1.95022583
v -11.97082233 -21.09594154 -1.67436051
v -2.94927979 -21.92983055 -0.47771540
v -4.45072079 -21.39059448 1.61566961
v -6.40603542 -19.47285652 1.05089557
v -4.99171543 -20.45398903 2.37145567
v -5.97977638 -21.76987267 -0.75734597
v -4.51798868 -22.72008324 -1.79556012
v -5.31714106 -22.21414757 0.50033337
v -6.01914072 -20.66240883 1.78447497
v -13.54983330 -27.11095619 -11.87587166
v -15.44508648 -27.00420380 -10.52464294
v -13.52479744 -24.66649818 -8.94307327
v -15.82911777 -25.76928711 -9.38807678
v -11.06608391 -26.81008339 -4.97616053
v -10.92347622 -25.80226517 -5.10903597
v -15.21911812 -26.01301575 -9.06598186
v 0.66562039 23.22794151 4.72065592
v -7.79356766 25.58844948 -1.43026876
v -18.78339386 -16.92746162 -11.29239559
v -19.48170662 -15.07105541 -9.88253212
v -19.70532036 -15.84215260 -11.17548084
v -20.02460480 -15.84883976 -9.56405067
v -18.25592613 -16.53733063 -9.09541893
v -21.34851456 -9.80861855 -11.26239109
v -21.43303680 -5.55010748 -10.73760605
v -20.76712608 -6.11290503 -8.10359097
v -23.06789017 -7.72180605 -8.97556210
v -13.17483997 19.96057129 -4.91224575
v -16.42358589 18.35947418 -5.36568022
v -21.28421783 5.97164631 -10.48072147
v -20.02994919 8.92438221 -7.44944906
v -19.46759415 5.78619385 -5.54869890
v -10.28687191 21.93127441 -3.18994641
v -14.04330349 21.53430748 -7.50417709
v -18.22243881 13.05465221 -4.59480000
v -15.93733692 -21.95679283 -18.60342598
v -16.43966293 -21.53540230 -14.45180607
v -19.47856712 -19.70261955 -16.45106697
v -19.88756180 -14.33944035 -13.11162853
v -12.51115227 -20.02793884 -21.71294785
v -13.92696571 -15.21841049 -22.69845963
v -14.57154465 -12.37465382 -22.77930641
v -17.72758675 -8.97893620 -21.08938599
v -20.30655098 -5.30273867 -18.88323975
v -20.66083527 -11.76213264 -17.74735832
v -21.33616447 -10.68162823 -14.67256832
v -21.56974792 -9.87855625 -16.31826782
v -22.30688477 -9.87709427 -15.67848110
v -13.46783829 16.27657318 -17.40841103
v -12.15421104 22.43426132 -9.33184910
v -9.86234093 23.67598534 -5.48413610
v -14.79634476 12.94406509 -20.14718628
v -12.88730621 18.82540321 -2.49372411
v -12.11181831 20.28678703 -1.62641585
v -10.75048828 20.07151985 -1.12231946
v -23.02075195 1.02516735 -10.21042633
v -21.92252731 2.55819201 -11.48098469
v -21.01566315 1.20633149 -6.72412491
v -21.05560303 -0.28405410 -7.47682667
v -22.35264587 -0.24561149 -9.18150711
v -23.95254517 1.11744273 -8.16634560
v -22.09049225 4.02531767 -8.30211830
v -23.59044647 3.46117234 -8.75389862
v -20.79303551 3.91093111 -7.09113646
v -22.20421600 0.54063231 -14.28479099
v -23.37054634 1.25790310 -15.46465397
v -21.30594063 4.00970364 -17.72955894
v -21.11519623 1.82934225 -18.06569481
v -22.95419502 1.45299947 -17.24654579
v -21.81563568 4.70378399 -15.26018715
v -23.23451042 3.43871903 -15.80239296
v -18.36351013 -0.91438067 -20.78067780
v -19.98679352 5.64948559 -19.71137619
v -11.40794086 3.25802159 -23.54385757
v -16.55911446 8.07071781 -0.00949382
v -18.22738457 10.37445259 0.16514529
v -18.04430962 8.42909813 -2.84014606
v -15.32639885 13.24304199 0.33883485
v -16.52216530 19.38899040 -21.92454529
v -15.77087021 17.38828659 -22.14007950
v -22.31993866 22.91993904 -26.68977165
v -20.12767410 23.46036148 -27.53658104
v -20.18360138 22.53096390 -23.61937714
v -22.50830650 21.99784851 -23.88363838
v -24.66701698 16.72678185 -28.89709663
v -18.08445358 14.57849503 -30.86532974
v -19.58838654 13.77736187 -26.84406281
v -17.26846504 21.35067940 -30.52377701
v -23.93845367 21.32877541 -25.93510437
v -22.33698273 14.57931137 -27.60148621
v -17.07209206 15.02304077 -26.00389290
v -18.32372856 22.82619858 -27.01195526
v -16.91937447 20.11907196 -33.17596436
v -17.07223320 15.59425163 -33.76755905
v -22.42929649 12.77917004 -34.37160110
v -25.45578575 16.95783806 -32.71997070
v -24.12166214 21.25753021 -32.64403152
v -22.75319672 22.28304863 -32.93245316
v -16.47604561 18.58670616 -32.18511581
v -20.05947304 13.33684349 -32.73009872
v -20.20141029 22.55014038 -32.78945541
v -22.31621170 19.09860802 -19.57978630
v -24.76861191 17.29841232 -23.76586723
v -21.25270462 9.58433628 -22.50908089
v -23.99725151 9.84969330 -17.95675659
v -21.29800224 6.62087250 -18.23712730
v -18.54130745 19.10231590 -18.30060577
v -21.31463051 20.31412125 -20.68012047
v -24.20409393 12.04480267 -22.20376778
v -17.62233925 9.48895931 -21.84273529
v -18.17929268 21.73690605 -23.19906235
v -17.94783401 20.10468483 -8.50063419
v -20.70650482 11.52755833 -8.09223557
v -20.70251656 16.75264168 -8.87363052
v -24.17456627 13.62396336 -15.24907207
v -20.07381439 19.03845596 -11.78478813
v -15.11460781 19.40090179 -14.02635288
v -24.48832512 11.67536640 -16.62752342
v -22.62519455 13.33808899 -10.75632381
v -18.15924835 20.01466370 -12.31642532
v -14.84333515 16.09046173 -18.34265327
v -21.26150131 20.61760902 -34.02491379
v -24.70973969 17.85314178 -33.67028427
v -21.74071121 7.02900982 -15.05102444
v -21.31631851 -14.99654293 -18.37806511
v -23.51429176 -9.42282009 -26.23212624
v -21.34924507 -7.83869743 -26.28775787
v -20.85495186 -8.61657143 -22.25510597
v -19.53521156 -8.03278351 -22.93114281
v -22.84105873 -10.82706165 -22.44014931
v -22.48639488 -15.81811428 -26.54758644
v -23.85559654 -13.50693417 -25.08673668
v -17.40049171 -14.94817066 -26.08004379
v -16.43758392 -9.87185192 -23.70963287
v -20.61812019 -16.71986771 -29.53834915
v -20.89282799 -16.45470619 -25.68514824
v -20.24477005 -7.94722891 -29.48291779
v -18.55072403 -7.99732924 -23.56353760
v -20.09461021 -8.22450924 -32.96183777
v -17.57757378 -9.15368938 -29.97916031
v -16.28842163 -15.14379978 -34.20064926
v -17.15438080 -15.79310417 -31.91008568
v -16.02167702 -14.79232883 -32.52983856
v -18.80357361 -17.40672684 -32.79361343
v -23.75357056 -16.73905373 -33.99708557
v -24.61427116 -15.07591915 -33.95657730
v -22.17734528 -17.06829453 -32.57755661
v -23.99321747 -10.70096779 -29.84429169
v -16.20307159 -12.30658817 -28.45323181
v -24.10504723 -15.23559475 -31.93437195
v -22.67691994 -8.81408978 -32.60033035
v -19.83092880 -19.70318604 -20.38525391
v -20.63034248 -17.85643005 -17.01391220
v -18.71987152 -20.80014420 -18.15124321
v -15.64808464 -17.57146263 -22.83699799
v -20.91929817 -18.61280632 -20.42499733
v -20.49024773 -20.02622223 -17.45148849
v -14.78732300 -14.31349182 -23.58342934
v -18.27449226 -19.21535110 -22.41918755
v -20.56055260 -20.03814888 -18.71016502
v -22.14354706 -16.77286911 -23.04167366
v -21.90388489 -11.13023472 -20.67832184
v -19.36053276 -9.14877129 -21.00051880
v -22.31794739 -16.89733124 -21.38431168
v -21.50924492 -9.77854824 -34.31117249
v -9.24509144 -30.58484650 -22.59536743
v -8.00422573 -31.34791756 -23.41861725
v -8.80600643 -29.04331970 -23.17462730
v -13.43448544 -30.62276077 -18.72724533
v -11.38612556 -30.91800499 -19.96042252
v -10.73891830 -32.71789932 -19.53844643
v -12.51028252 -31.85808563 -19.97615623
v -12.00246143 -32.06427765 -17.52366447
v -13.05837250 -32.25922012 -18.54455757
v -12.47508526 -29.73156738 -17.52123260
v -12.12787342 -29.92328262 -12.34712887
v -13.55244637 -31.09829140 -12.71018410
v -12.08196449 -31.02525902 -14.81968498
v -13.54412556 -31.55854988 -13.72117233
v -11.41868973 -32.12404251 -12.18683720
v -8.60077286 -30.54805756 -8.78226280
v -9.40069580 -31.66560936 -7.93824339
v -9.87946033 -30.89582634 -10.28194523
v -6.76008558 -32.14350891 -8.53114891
v -5.18050623 -31.09064674 -7.55066442
v -4.63059807 -31.84976578 -5.98235655
v -3.99059439 -32.73298264 -6.08274841
v -3.51753950 -31.30318832 -5.71061850
v -12.72228241 -32.16677856 -19.38424492
v -8.01705933 -39.73593521 -9.52345943
v -9.84717846 -34.04822922 -19.46080589
v -8.68192387 -37.50683212 -12.88596725
v -7.98761272 -39.79949570 -19.45120621
v -8.54604340 -39.38171005 -16.25127220
v -8.29627419 -41.02404785 -15.94456768
v -16.19207764 -15.86613941 -4.23175764
v -13.94974136 -14.62204647 -1.58271694
v -17.83942795 -15.34680939 -6.60275984
v -8.19164848 -15.34913826 2.12024236
v -8.81546688 -22.94606400 -4.56281137
v -11.49402142 -21.26495743 -4.06060743
v -4.35618353 -18.07299042 2.31415606
v -9.67527103 -12.35351086 2.91381931
v -19.12923622 -7.61074543 -5.52125072
v -14.63747597 5.26590204 1.86831141
v -17.05524635 3.88979769 -0.00869567
v -19.07223320 -1.57819474 -2.65204716
v -5.79748631 10.23635197 6.04926586
v -11.57206821 16.77510834 -0.18386962
v -15.39545441 8.96761036 0.85084581
v -17.54922867 11.91147900 -3.01463890
v -15.94495010 14.63431358 -1.91157579
v -3.80855799 22.54347801 3.16531539
v -6.20147181 24.41796303 0.97055995
v -6.54248810 18.07409096 3.11616516
v -3.16531801 15.41742516 5.18928194
v -3.00220418 -25.06937790 -3.23176384
v -5.94839001 -25.10735130 -4.38846207
v -5.62913799 -27.29076767 -5.92073345
v -2.07746816 -26.68831635 -4.45144510
v -9.66554165 -24.90806007 -5.41345215
v -8.87042522 -27.60712051 -6.55262375
v -10.71965408 -26.64047050 -8.23938274
v -11.27859116 -27.77987671 -10.35025501
v -8.58906269 -26.66862869 -5.97294998
v -14.73988724 -24.71531296 -11.69333363
v -12.81504536 -27.57850075 -14.26845360
v -3.11978960 -33.42751312 -7.94750643
v -5.73076820 -33.92537689 -9.05489635
v -1.99400532 -31.04100227 -6.65541363
v -8.45913601 -33.61313248 -10.38760757
v -9.23770905 -35.06588364 -12.12027454
v -2.98721099 38.16158295 -1.47595024
v -0.70922029 28.06532860 5.48792553
v -1.19044423 38.34924316 -3.27090096
v -3.93231487 30.26535225 4.34279823
v -8.01328087 27.73312950 -1.15408170
v -6.65218782 28.37127495 -0.27080530
v -2.22713327 23.20955086 4.17969179
v -1.63466871 25.18463516 4.39889145
v -6.03718901 32.07710266 0.65883839
v -1.03638911 28.88050652 5.78780317
v -3.50799942 28.75843811 4.17543316
v -4.69391346 37.13805008 0.44690046
v -5.91340780 30.88041878 1.45764577
v -5.71357441 27.73176956 1.18182099
v -7.56461143 28.28513718 -2.69068050
v 0.08748205 -44.94701767 -10.57855701
v -1.27862072 -47.93550110 -13.30891323
v -6.49171734 -41.71264267 -11.41181087
v 0.32933858 -42.10397339 -9.13728714
v -1.04914105 -42.69750977 -9.69091320
v -5.48007488 -46.08861542 -13.51502323
v -2.46265817 -37.06413651 -7.53352785
v -11.39904690 -33.44684601 -13.68952942
v -10.09915638 -34.42138672 -14.15018463
v -11.88851261 -32.89803696 -14.63902950
v -16.10630035 -26.07473564 -10.61324406
v -12.73240757 -32.76848984 -12.36051464
v -13.68731785 -31.92784119 -12.92662811
v -12.77737999 -33.21768951 -12.87427616
v -13.29545975 -32.78231430 -13.55636978
v -13.42437458 -31.12967682 -17.89688301
v -13.08307743 -31.04615593 -19.62406349
v -11.90683937 -18.71513176 0.32423455
v -5.15393305 -10.90369892 7.14837408
v -5.59908867 -13.11425304 5.62615681
v -4.53574038 -0.64713120 9.21226120
v -3.39786696 -2.29647279 9.15805912
v -4.98800945 -3.12796569 8.29154682
v -4.05313110 9.59071827 8.71554184
v -3.25551081 7.94961834 9.37905216
v -4.62296200 6.89318371 8.49650383
v -1.99598837 17.15952301 6.13733816
v -1.63930464 24.39000130 4.84338188
v -4.58795929 -27.52349854 -2.66593337
v -5.69878960 -27.86410141 -4.38041162
v -4.45086575 -28.45280647 -3.69723225
v -5.11781883 -26.33390808 -2.82334733
v -5.87495422 -26.62154198 -3.41965556
v -11.90711498 -9.39612770 3.75822711
v -13.21591568 -10.10693359 2.88917375
v -10.63572407 1.04890764 5.68904257
v -13.31150818 0.26821628 4.45721102
v -10.32753754 9.60899639 5.39275599
v -11.45579624 10.28427029 4.66316938
v -4.63182735 25.13958168 2.71586752
v -18.30111122 -17.83484840 -4.74697924
v -20.11728668 -8.97107315 -1.92970109
v -19.14209557 -10.04031754 -1.81212211
v -19.51684570 2.60103822 -0.06298271
v -18.16818428 11.89575005 -0.08281291
v -17.55326271 10.81724644 0.87839419
v -8.29782486 26.64287186 -1.14822161
v -6.28675127 31.83880424 1.61747992
v -4.82557392 31.60384941 3.19766593
v -20.04605675 -9.60819626 -7.98051310
v -20.17269516 -11.49207973 -10.03506947
v -23.01821899 -9.23084927 -9.42376995
v -23.66699028 2.69266868 -7.55914927
v -24.29036522 2.42391253 -8.91508102
v -8.84658241 -36.19983673 -10.35330963
v -5.34763241 -39.31167603 -9.18341637
v -9.12371159 -38.05365372 -9.79564095
v -7.38309002 -38.16370392 -7.33703804
v -8.84436989 -39.06723404 -7.22945070
v -10.06227779 -37.64638519 -8.12382126
v -21.66917801 -6.04437733 -15.30702400
v -21.94663048 -1.46579611 -16.43943024
v -23.14394569 0.95223165 -16.91983604
v -15.28178501 -26.23132324 -16.71747208
v -1.95830107 42.52102280 6.08515596
v 1.10577095 36.02069473 10.42993069
v 1.03049266 41.61890793 0.22549823
v -3.17783475 38.77437210 6.51863670
v -2.87258029 32.37844849 5.65312862
v -1.08168495 34.64388657 8.23198509
v -20.24030304 -16.58246231 -10.21962833
v -8.06667042 28.43268776 -5.06855774
v -17.17010689 -18.57826614 -10.51089764
v -19.00605965 -15.49158669 -8.97003269
v -19.71690369 -16.49678230 -9.18931389
v -11.21212006 -27.47495461 -6.41448069
v -20.05730629 1.50860953 0.09181467
v -21.31906128 -18.11567497 -33.87687683
v -19.76807022 -18.46733665 -33.79978943
v -24.14171982 -16.68018723 -32.73948288
v -24.80333710 -15.76668835 -32.99477768
v -23.25659561 -17.32316017 -33.78565216
v -15.69609642 -16.19640350 -33.65912247
v -18.08192444 -17.19051361 -34.05693054
v -20.92850494 12.72438240 -34.08419800
v -18.86126709 13.12191486 -34.40035248
v -17.11034012 14.97390461 -32.89884949
v -17.92982292 13.35462761 -34.04074478
v -25.66432381 16.56321526 -33.94010544
v -23.76660156 14.07233810 -33.35582733
v -16.09574127 -16.46777916 -34.01084900
v -16.62896156 -16.31449509 -32.38638306
v -18.27480698 13.38015270 -33.24419022
v -3.51597285 -27.23040962 -2.99757671
v -10.11314774 -26.51129532 -4.76677990
v -3.31617641 -27.85657692 -3.66173863
v -9.99086857 -27.44244957 -5.25126219
v -18.39117432 -18.99365044 -4.96019077
v -9.87764740 -39.00872803 -8.18185425
v -9.53505421 -32.99060059 -8.44939899
v -8.86981869 -32.93143845 -7.91849566
v -11.62784004 -20.23264122 -0.27186307
v -22.49997902 -8.32337761 -15.91146088
v -22.69689369 -8.56520081 -15.13038445
v -8.41367435 -29.97026253 -23.79776001
v -2.98098826 -32.40045547 -5.71236277
v -2.64557648 47.71237564 28.61966324
v -1.77194822 46.93439102 25.96667862
v -8.26663876 -34.25079727 -23.01575661
v -7.77870655 -35.44081879 -23.63738060
v -9.64283848 -37.32149887 -7.36500740
v -11.24122810 -36.14739227 -23.35461807
v -22.34543228 -17.83961487 -22.11293411
f 5 2 1
f 5 3 2
f 4 5 1
f 5 4 11
f 10 6 8
f 508 10 8
f 10 19 13
f 3 16 17
f 21 20 5
f 5 20 16
f 5 16 3
f 10 13 6
f 14 5 12
f 21 5 13
f 5 14 13
f 6 13 22
f 11 7 23
f 24 11 4
f 7 9 6
f 6 9 8
f 27 28 72
f 29 28 27
f 25 26 27
f 34 30 31
f 32 30 34
f 33 32 34
f 34 31 35
f 38 535 39
f 32 42 41
f 30 32 41
f 31 30 41
f 37 33 36
f 37 39 44
f 44 39 43
f 33 37 43
f 37 44 43
f 33 43 45
f 33 45 42
f 33 42 32
f 37 40 38
f 37 38 39
f 41 42 45
f 36 47 37
f 396 49 37
f 396 37 47
f 34 35 50
f 50 35 51
f 310 50 51
f 71 33 34
f 71 34 56
f 56 34 50
f 60 61 62
f 64 65 66
f 331 71 56
f 58 68 69
f 69 68 70
f 33 71 36
f 47 36 71
f 72 47 71
f 73 46 40
f 73 568 46
f 37 49 73
f 37 73 40
f 49 396 48
f 74 224 76
f 74 76 75
f 76 77 75
f 78 79 76
f 224 78 76
f 76 80 77
f 78 81 79
f 79 81 76
f 76 81 575
f 76 575 80
f 82 84 310
f 82 83 81
f 82 310 83
f 81 83 310
f 81 310 575
f 121 119 123
f 135 133 134
f 135 134 136
f 142 139 421
f 153 154 152
f 155 151 150
f 371 404 165
f 167 168 169
f 191 86 85
f 347 176 178
f 84 187 188
f 186 84 190
f 186 190 189
f 189 296 191
f 84 82 187
f 82 81 187
f 78 192 81
f 224 300 192
f 224 192 78
f 195 194 196
f 196 194 193
f 296 196 191
f 74 93 201
f 203 201 93
f 202 74 201
f 202 201 203
f 263 203 204
f 74 202 224
f 202 251 224
f 204 203 179
f 179 203 205
f 211 212 213
f 216 214 217
f 218 219 220
f 223 193 224
f 230 239 251
f 230 251 264
f 231 233 232
f 232 233 234
f 238 239 230
f 231 232 240
f 240 232 234
f 233 238 241
f 241 238 230
f 233 241 234
f 265 242 233
f 233 242 238
f 470 237 239
f 266 470 239
f 243 235 237
f 235 236 237
f 267 245 231
f 240 267 231
f 244 267 240
f 244 240 235
f 246 266 238
f 266 239 238
f 242 246 238
f 247 243 237
f 470 247 237
f 245 265 233
f 245 233 231
f 249 236 250
f 248 253 255
f 255 253 254
f 255 254 248
f 236 235 256
f 252 249 223
f 252 223 224
f 252 224 251
f 234 248 235
f 240 234 235
f 237 236 249
f 237 252 251
f 239 237 251
f 241 230 264
f 241 264 253
f 234 241 253
f 234 253 248
f 237 249 252
f 263 204 257
f 257 204 184
f 262 257 258
f 258 257 184
f 258 184 180
f 259 261 260
f 260 261 185
f 260 185 180
f 259 262 258
f 259 258 261
f 261 258 180
f 185 261 180
f 235 248 262
f 253 264 263
f 235 262 259
f 236 256 259
f 256 235 259
f 254 257 262
f 248 254 262
f 254 253 263
f 254 263 257
f 202 263 264
f 267 246 242
f 267 242 265
f 267 266 246
f 267 469 266
f 267 473 469
f 267 244 472
f 267 265 245
f 259 268 236
f 236 268 250
f 250 268 181
f 249 250 181
f 249 181 223
f 259 260 268
f 182 268 260
f 270 281 269
f 293 270 269
f 273 288 274
f 275 276 277
f 272 291 278
f 291 293 269
f 291 269 278
f 269 271 279
f 278 269 279
f 278 279 302
f 272 278 302
f 288 272 280
f 288 280 274
f 276 273 274
f 276 274 277
f 270 275 281
f 275 300 282
f 281 275 282
f 281 282 271
f 269 281 271
f 283 284 270
f 285 275 284
f 283 285 284
f 284 275 270
f 286 273 276
f 465 272 288
f 289 290 291
f 290 292 293
f 290 293 291
f 285 276 275
f 285 286 276
f 467 288 273
f 289 291 272
f 292 270 293
f 292 283 270
f 294 295 187
f 192 304 81
f 299 81 304
f 301 296 298
f 299 187 81
f 299 294 187
f 300 275 277
f 277 192 300
f 274 294 299
f 190 301 298
f 271 194 303
f 303 194 195
f 303 195 196
f 300 224 193
f 300 193 194
f 271 282 300
f 271 300 194
f 277 274 304
f 274 299 304
f 277 304 192
f 274 280 295
f 274 295 294
f 302 279 306
f 279 303 306
f 279 271 303
f 306 303 196
f 302 306 196
f 302 196 296
f 309 307 285
f 309 285 283
f 309 286 307
f 307 286 285
f 308 466 286
f 286 309 289
f 286 289 308
f 309 292 290
f 309 290 289
f 309 283 292
f 329 331 330
f 27 72 71
f 25 331 329
f 25 329 29
f 27 331 25
f 27 71 331
f 29 27 332
f 333 25 29
f 26 25 333
f 26 332 27
f 29 332 26
f 29 26 333
f 73 49 48
f 180 182 260
f 182 180 179
f 184 179 180
f 179 184 204
f 150 153 152
f 152 336 150
f 158 156 335
f 156 337 152
f 156 152 338
f 152 337 336
f 156 338 335
f 335 338 152
f 335 152 334
f 157 158 160
f 160 158 140
f 161 163 339
f 339 163 140
f 164 341 337
f 163 164 337
f 163 337 160
f 163 160 140
f 146 339 344
f 339 146 340
f 343 339 140
f 343 146 344
f 343 344 339
f 146 145 340
f 139 142 143
f 140 158 335
f 143 142 345
f 346 143 343
f 346 343 140
f 135 347 133
f 334 137 335
f 131 137 334
f 131 334 155
f 347 131 155
f 137 142 140
f 137 140 335
f 137 133 345
f 137 345 142
f 145 127 342
f 129 127 145
f 129 145 343
f 127 124 342
f 143 121 343
f 119 121 143
f 119 143 345
f 120 349 129
f 121 120 129
f 121 129 343
f 120 422 349
f 350 117 182
f 114 116 345
f 114 345 133
f 114 133 351
f 351 133 347
f 117 351 347
f 116 118 119
f 116 119 345
f 118 350 119
f 350 113 122
f 119 350 122
f 124 100 348
f 96 100 124
f 96 124 349
f 111 349 422
f 122 111 422
f 113 111 122
f 111 110 353
f 111 353 96
f 111 96 349
f 225 354 113
f 225 113 350
f 225 350 226
f 226 350 182
f 354 228 113
f 355 226 182
f 228 212 113
f 355 182 211
f 212 211 182
f 209 183 391
f 206 209 113
f 206 113 212
f 206 212 182
f 183 179 205
f 206 179 183
f 179 206 182
f 106 108 110
f 110 108 353
f 106 110 113
f 107 391 108
f 108 391 356
f 209 106 113
f 107 106 209
f 107 209 391
f 98 102 352
f 415 102 98
f 415 98 353
f 103 105 356
f 103 357 102
f 105 108 356
f 105 415 108
f 108 415 353
f 359 360 337
f 359 337 341
f 364 361 362
f 364 362 363
f 360 364 337
f 361 365 359
f 366 367 337
f 337 367 336
f 367 368 336
f 368 364 363
f 368 366 337
f 368 337 364
f 370 371 88
f 165 166 369
f 166 368 369
f 166 336 368
f 371 165 369
f 371 369 88
f 166 150 336
f 166 370 150
f 150 370 189
f 322 372 373
f 323 363 362
f 323 362 372
f 372 362 550
f 321 320 368
f 368 320 369
f 321 368 363
f 320 374 375
f 321 363 323
f 374 321 323
f 374 323 322
f 374 322 373
f 54 372 550
f 54 376 373
f 54 373 372
f 376 377 373
f 52 54 550
f 358 356 391
f 74 92 384
f 93 74 384
f 93 384 381
f 385 390 416
f 203 93 381
f 203 381 378
f 379 94 378
f 94 203 378
f 103 657 357
f 657 103 385
f 385 103 356
f 171 390 380
f 356 358 390
f 390 358 380
f 356 390 385
f 172 391 183
f 392 172 183
f 392 183 205
f 382 392 379
f 172 382 358
f 382 379 358
f 172 358 391
f 358 386 380
f 388 386 358
f 386 388 380
f 388 451 380
f 389 388 358
f 389 358 379
f 263 202 203
f 251 202 264
f 375 439 28
f 28 29 329
f 375 28 329
f 326 72 28
f 28 439 326
f 54 398 55
f 398 52 53
f 398 53 399
f 398 399 55
f 377 376 399
f 376 54 55
f 376 55 399
f 52 377 399
f 52 399 53
f 54 52 398
f 401 319 375
f 401 375 329
f 318 401 329
f 319 317 88
f 319 88 369
f 318 329 317
f 319 369 320
f 319 320 375
f 402 316 330
f 330 316 329
f 315 402 330
f 316 314 84
f 315 330 314
f 314 330 312
f 316 88 317
f 316 317 329
f 370 404 371
f 315 325 402
f 318 317 405
f 405 406 401
f 339 162 161
f 145 408 343
f 145 149 408
f 149 145 147
f 149 147 408
f 145 146 147
f 408 147 148
f 148 343 409
f 408 148 409
f 146 343 148
f 146 148 147
f 409 343 408
f 124 125 126
f 124 410 125
f 410 127 128
f 125 410 130
f 410 128 129
f 410 129 130
f 126 125 130
f 130 129 411
f 126 130 411
f 129 349 411
f 127 129 128
f 349 124 411
f 411 124 126
f 124 127 410
f 98 412 353
f 353 412 99
f 100 101 412
f 412 101 97
f 101 100 413
f 101 413 96
f 101 96 97
f 99 412 97
f 97 96 414
f 99 97 414
f 100 96 413
f 98 100 412
f 414 353 99
f 96 353 414
f 105 104 415
f 415 104 103
f 103 102 415
f 105 103 104
f 416 171 657
f 390 171 416
f 657 385 416
f 417 418 419
f 417 419 420
f 160 337 157
f 143 144 421
f 143 346 144
f 346 141 421
f 144 346 421
f 421 141 140
f 421 140 142
f 346 140 141
f 139 143 421
f 120 123 422
f 120 121 123
f 422 123 423
f 423 123 119
f 423 119 422
f 119 122 422
f 110 111 424
f 111 112 424
f 424 112 113
f 424 113 110
f 111 113 112
f 106 107 109
f 109 107 108
f 106 109 108
f 165 404 170
f 165 170 166
f 153 150 154
f 334 425 155
f 134 138 132
f 136 134 132
f 137 131 132
f 137 132 138
f 135 136 132
f 133 137 138
f 133 138 134
f 131 347 132
f 347 135 132
f 118 426 350
f 351 427 114
f 114 427 115
f 350 428 117
f 429 227 225
f 429 225 226
f 430 227 429
f 229 430 429
f 211 213 429
f 228 229 429
f 228 429 212
f 212 429 213
f 226 355 429
f 228 354 229
f 354 430 229
f 354 225 430
f 225 227 430
f 355 211 429
f 208 207 206
f 209 207 208
f 209 208 210
f 210 208 183
f 206 183 208
f 209 206 207
f 183 209 210
f 392 431 172
f 431 392 383
f 172 431 382
f 431 383 382
f 392 382 383
f 388 389 387
f 389 379 387
f 379 388 387
f 177 347 155
f 433 175 432
f 215 219 117
f 117 219 182
f 347 215 117
f 216 215 347
f 216 347 432
f 432 347 433
f 219 218 181
f 219 181 268
f 219 268 182
f 434 216 432
f 218 434 181
f 435 175 178
f 435 178 436
f 436 178 176
f 435 436 176
f 435 176 177
f 433 347 175
f 175 347 178
f 177 175 435
f 347 177 176
f 219 437 438
f 219 438 220
f 215 217 437
f 437 217 438
f 438 217 214
f 438 214 220
f 220 214 216
f 434 218 220
f 216 217 215
f 219 215 437
f 216 434 220
f 60 62 63
f 63 374 373
f 62 439 375
f 62 375 374
f 63 62 374
f 63 373 377
f 440 63 377
f 439 327 326
f 327 328 440
f 327 440 326
f 326 440 377
f 397 377 52
f 393 394 396
f 394 397 52
f 67 395 393
f 67 393 396
f 395 397 393
f 397 395 377
f 395 326 377
f 395 67 396
f 395 396 326
f 47 72 326
f 47 326 396
f 73 48 396
f 73 396 568
f 317 319 406
f 317 406 405
f 315 314 325
f 440 60 63
f 327 442 328
f 328 442 440
f 397 394 393
f 198 444 175
f 175 444 432
f 198 175 191
f 197 200 196
f 197 196 193
f 197 193 444
f 200 198 196
f 196 198 191
f 445 221 444
f 221 432 444
f 445 444 193
f 446 222 223
f 221 446 434
f 221 434 432
f 446 223 434
f 434 223 181
f 222 445 223
f 223 445 193
f 197 485 200
f 198 199 444
f 381 449 448
f 381 448 379
f 378 381 379
f 448 449 1
f 1 379 448
f 18 450 379
f 17 451 450
f 2 379 1
f 3 379 2
f 18 379 3
f 18 3 450
f 17 450 3
f 450 451 388
f 379 450 388
f 89 452 84
f 89 84 186
f 88 316 84
f 89 186 370
f 186 189 370
f 89 370 90
f 90 370 88
f 452 88 84
f 173 453 85
f 173 85 86
f 452 486 88
f 95 205 203
f 94 95 203
f 95 392 205
f 454 94 379
f 95 454 379
f 95 379 392
f 455 173 155
f 155 173 177
f 173 175 177
f 173 191 175
f 174 455 155
f 174 155 150
f 87 174 150
f 87 150 85
f 191 85 150
f 191 150 189
f 174 87 455
f 455 87 173
f 87 453 173
f 311 313 84
f 313 310 84
f 313 312 310
f 311 84 314
f 311 314 312
f 311 456 313
f 167 457 168
f 318 405 401
f 339 458 162
f 341 459 458
f 459 341 164
f 458 459 460
f 460 459 164
f 460 164 163
f 162 458 460
f 162 460 161
f 161 460 163
f 341 458 339
f 118 116 426
f 426 461 428
f 116 115 426
f 116 114 115
f 426 115 461
f 461 115 427
f 427 351 117
f 461 427 428
f 428 427 117
f 350 426 428
f 15 13 19
f 21 13 20
f 13 15 20
f 20 15 19
f 24 7 11
f 7 24 9
f 467 466 463
f 474 467 463
f 465 462 308
f 465 288 462
f 464 272 465
f 289 272 464
f 467 273 287
f 470 266 471
f 244 235 472
f 463 308 462
f 463 462 474
f 288 467 474
f 462 288 474
f 466 308 463
f 475 466 467
f 475 467 286
f 286 467 287
f 273 286 287
f 286 466 475
f 476 464 465
f 476 289 464
f 465 308 476
f 308 289 476
f 243 473 477
f 473 267 477
f 267 472 477
f 472 235 477
f 235 243 477
f 247 469 468
f 473 243 468
f 469 473 468
f 243 247 468
f 471 469 478
f 247 470 469
f 470 478 469
f 478 470 471
f 266 469 471
f 366 169 168
f 366 168 367
f 364 360 420
f 419 364 420
f 359 365 479
f 368 480 366
f 417 365 361
f 417 361 418
f 417 420 359
f 417 359 479
f 417 479 365
f 361 364 418
f 360 359 420
f 364 419 418
f 367 168 457
f 367 457 368
f 166 170 481
f 170 404 481
f 404 370 403
f 166 481 403
f 166 403 370
f 481 404 403
f 480 169 366
f 167 368 457
f 167 169 480
f 167 480 368
f 334 152 425
f 152 154 425
f 425 154 482
f 154 150 482
f 482 150 151
f 425 482 155
f 155 482 151
f 325 314 316
f 325 316 441
f 406 319 401
f 402 325 441
f 402 441 316
f 439 443 327
f 374 320 400
f 320 483 400
f 483 320 321
f 400 483 321
f 400 321 374
f 157 484 407
f 157 337 159
f 157 159 484
f 484 159 337
f 484 337 156
f 407 484 156
f 158 407 156
f 157 407 158
f 87 85 453
f 191 173 86
f 485 199 198
f 485 198 200
f 89 90 91
f 90 88 91
f 91 88 486
f 91 486 89
f 89 486 452
f 444 199 485
f 444 485 197
f 221 447 487
f 447 445 487
f 445 222 487
f 487 222 446
f 221 487 446
f 445 447 221
f 312 313 488
f 488 313 456
f 312 488 311
f 488 456 311
f 322 323 489
f 323 324 489
f 322 489 490
f 322 490 372
f 489 324 490
f 490 324 372
f 323 372 324
f 22 13 492
f 492 13 491
f 23 491 493
f 23 493 11
f 11 493 491
f 7 494 492
f 7 492 23
f 494 22 492
f 23 492 491
f 14 12 491
f 12 5 491
f 5 11 491
f 13 14 491
f 6 22 494
f 7 6 494
f 59 495 312
f 58 312 330
f 58 59 312
f 64 66 56
f 66 57 56
f 57 331 56
f 496 50 310
f 496 56 50
f 495 496 310
f 495 310 312
f 57 58 331
f 58 330 331
f 58 69 59
f 69 70 59
f 59 70 495
f 62 61 439
f 495 70 496
f 66 65 57
f 61 60 440
f 440 442 61
f 61 442 327
f 327 443 61
f 61 443 439
f 68 65 64
f 68 64 70
f 58 57 65
f 58 65 68
f 496 70 64
f 496 64 56
f 190 296 189
f 190 84 188
f 297 190 295
f 190 188 187
f 190 187 295
f 302 280 272
f 305 302 296
f 497 305 297
f 297 305 296
f 497 297 295
f 280 497 295
f 296 190 298
f 190 297 301
f 297 296 301
f 498 302 497
f 497 302 305
f 280 302 498
f 280 498 497
f 454 95 94
f 500 501 952
f 499 4 1
f 952 955 500
f 502 499 501
f 502 501 500
f 502 500 503
f 4 499 502
f 508 8 507
f 508 507 504
f 503 509 502
f 510 508 504
f 510 504 511
f 510 511 513
f 514 957 953
f 514 953 17
f 514 17 16
f 16 515 514
f 500 955 515
f 10 510 19
f 515 955 514
f 516 16 20
f 503 500 515
f 503 515 16
f 503 16 516
f 516 511 503
f 503 511 512
f 504 518 511
f 519 520 505
f 506 24 521
f 506 519 505
f 506 502 509
f 506 509 519
f 509 520 519
f 24 4 502
f 24 502 521
f 505 504 506
f 504 9 506
f 504 507 9
f 9 507 8
f 501 499 952
f 834 525 896
f 536 528 527
f 528 526 527
f 529 528 536
f 529 530 528
f 530 526 528
f 526 35 31
f 530 35 526
f 531 533 532
f 534 535 38
f 544 534 40
f 40 534 38
f 529 553 530
f 536 527 41
f 43 538 45
f 535 539 39
f 539 43 39
f 41 527 526
f 31 41 526
f 542 531 532
f 533 531 529
f 540 539 535
f 540 43 539
f 533 529 540
f 529 538 540
f 540 538 43
f 529 536 537
f 529 537 538
f 542 534 544
f 542 532 534
f 532 541 534
f 541 540 535
f 541 535 534
f 532 533 540
f 532 540 541
f 537 536 538
f 45 538 41
f 41 538 536
f 40 46 544
f 531 553 529
f 542 545 531
f 530 549 35
f 543 546 542
f 542 546 545
f 531 545 546
f 547 546 543
f 889 546 547
f 549 51 35
f 549 577 51
f 577 310 51
f 553 554 530
f 554 549 530
f 559 577 549
f 566 553 531
f 524 566 546
f 546 566 531
f 567 544 568
f 568 544 46
f 544 567 542
f 543 542 548
f 543 548 547
f 542 567 548
f 570 74 714
f 714 572 77
f 74 75 77
f 74 77 572
f 714 74 572
f 571 574 573
f 574 80 575
f 573 574 575
f 714 77 574
f 714 574 571
f 77 80 574
f 573 575 680
f 680 575 577
f 680 577 576
f 577 575 310
f 578 580 579
f 578 576 580
f 74 569 92
f 854 599 855
f 619 620 618
f 838 631 632
f 646 647 648
f 658 934 887
f 659 581 582
f 659 663 581
f 665 667 666
f 675 671 672
f 676 578 677
f 677 793 678
f 677 679 793
f 576 578 680
f 573 680 681
f 571 573 682
f 573 681 682
f 684 712 683
f 712 571 683
f 685 684 683
f 687 686 688
f 793 679 685
f 569 74 570
f 569 570 588
f 689 588 570
f 691 588 690
f 570 714 692
f 668 691 690
f 707 708 709
f 714 571 712
f 713 714 712
f 721 723 722
f 721 724 723
f 726 731 727
f 726 727 730
f 728 720 739
f 720 731 739
f 728 719 720
f 729 724 721
f 743 742 729
f 732 751 719
f 732 719 728
f 722 723 751
f 722 751 732
f 741 732 728
f 741 722 732
f 974 731 726
f 734 739 731
f 734 731 974
f 977 730 725
f 763 729 721
f 763 721 737
f 743 729 763
f 733 728 739
f 740 730 977
f 726 730 740
f 976 736 763
f 725 743 763
f 736 725 763
f 738 721 722
f 738 722 741
f 737 721 738
f 744 745 749
f 744 713 746
f 720 692 750
f 750 692 714
f 748 742 747
f 749 758 743
f 749 745 758
f 750 714 744
f 714 713 744
f 729 742 724
f 730 744 749
f 731 720 750
f 751 747 719
f 723 747 751
f 724 748 723
f 723 748 747
f 742 748 724
f 730 749 725
f 725 749 743
f 727 731 730
f 731 750 744
f 731 744 730
f 757 690 588
f 757 760 690
f 752 674 760
f 752 669 674
f 753 675 754
f 754 675 669
f 754 669 752
f 743 754 742
f 755 754 743
f 754 756 742
f 754 752 756
f 747 757 689
f 747 689 761
f 758 755 743
f 758 759 755
f 759 754 755
f 745 753 758
f 753 754 759
f 758 753 759
f 742 760 747
f 742 756 760
f 756 752 760
f 747 760 757
f 719 761 720
f 720 761 692
f 719 747 761
f 762 741 728
f 762 728 733
f 762 739 734
f 762 733 739
f 762 734 763
f 762 737 738
f 762 763 737
f 762 738 741
f 753 670 671
f 745 744 753
f 744 764 753
f 764 670 753
f 744 746 764
f 668 690 760
f 668 760 674
f 793 685 765
f 767 768 769
f 766 770 768
f 766 768 767
f 788 766 767
f 780 774 789
f 788 770 766
f 772 770 788
f 775 776 771
f 773 776 775
f 777 774 780
f 777 778 774
f 767 769 778
f 767 778 777
f 779 777 780
f 783 773 782
f 783 789 773
f 787 775 771
f 784 773 775
f 782 773 784
f 786 790 788
f 790 771 772
f 790 772 788
f 791 767 777
f 791 788 767
f 799 676 677
f 681 680 795
f 796 800 793
f 800 797 793
f 795 680 676
f 676 680 578
f 795 676 799
f 774 682 789
f 682 681 798
f 789 682 798
f 683 571 682
f 683 682 774
f 773 795 799
f 678 797 800
f 770 802 803
f 770 803 768
f 768 803 769
f 802 685 683
f 802 683 803
f 769 803 778
f 778 803 774
f 803 683 774
f 789 798 773
f 773 798 795
f 798 681 795
f 773 801 776
f 799 801 773
f 801 799 792
f 770 765 802
f 802 765 685
f 772 793 765
f 772 765 770
f 805 779 780
f 805 780 789
f 805 789 781
f 805 781 971
f 971 785 805
f 805 786 788
f 805 791 777
f 805 777 779
f 805 788 791
f 577 580 576
f 810 811 812
f 811 829 812
f 812 829 810
f 522 566 524
f 524 890 832
f 522 524 523
f 896 833 834
f 522 523 833
f 834 833 523
f 566 522 553
f 522 833 553
f 835 834 523
f 835 523 524
f 835 524 525
f 835 525 834
f 567 547 548
f 675 753 671
f 674 669 668
f 631 677 633
f 838 677 631
f 639 837 636
f 841 840 640
f 636 633 841
f 636 837 633
f 837 836 633
f 640 840 638
f 638 840 639
f 647 341 642
f 646 840 647
f 644 840 646
f 644 842 840
f 842 839 639
f 842 639 840
f 642 339 842
f 339 340 842
f 642 341 339
f 842 340 629
f 628 839 842
f 628 842 629
f 629 145 627
f 627 145 342
f 629 340 145
f 625 609 624
f 624 837 622
f 622 837 639
f 639 839 628
f 639 628 843
f 843 628 626
f 626 628 625
f 628 627 625
f 836 837 621
f 617 838 836
f 617 836 621
f 617 844 838
f 621 837 624
f 621 624 609
f 621 609 618
f 627 342 614
f 615 627 614
f 614 124 613
f 613 124 348
f 614 342 124
f 923 603 611
f 603 845 611
f 609 625 610
f 610 625 627
f 627 615 610
f 610 615 616
f 610 616 923
f 616 613 923
f 846 672 606
f 618 609 604
f 847 618 604
f 847 619 618
f 606 619 847
f 604 609 611
f 611 845 846
f 604 611 846
f 613 348 594
f 590 613 594
f 591 848 590
f 594 348 100
f 593 594 98
f 594 100 98
f 98 352 592
f 593 98 592
f 603 923 613
f 602 848 601
f 848 592 601
f 602 603 848
f 603 613 590
f 603 590 848
f 715 846 845
f 717 672 846
f 715 717 846
f 715 845 603
f 715 603 850
f 850 603 718
f 718 603 601
f 718 601 849
f 851 675 672
f 851 672 717
f 718 849 852
f 852 675 851
f 852 669 675
f 695 854 691
f 693 849 695
f 668 669 852
f 668 852 693
f 693 852 849
f 695 691 673
f 673 691 668
f 693 673 668
f 855 601 592
f 600 849 601
f 600 601 855
f 854 695 849
f 854 849 600
f 598 856 592
f 592 352 598
f 596 357 856
f 598 352 102
f 598 357 596
f 598 102 357
f 856 357 855
f 357 853 855
f 855 592 856
f 857 341 647
f 857 647 840
f 857 840 858
f 858 840 859
f 860 359 341
f 860 341 857
f 362 361 860
f 860 361 359
f 840 841 633
f 861 840 633
f 863 859 862
f 861 633 863
f 862 859 865
f 865 859 840
f 865 840 861
f 866 867 650
f 650 864 652
f 864 863 633
f 652 864 633
f 652 633 866
f 633 677 866
f 870 362 859
f 870 859 825
f 825 869 868
f 870 550 362
f 821 859 863
f 821 863 864
f 821 864 823
f 825 859 821
f 824 825 821
f 869 825 824
f 551 550 868
f 551 868 869
f 551 869 552
f 550 552 52
f 569 384 92
f 588 873 569
f 873 875 569
f 887 955 884
f 875 381 569
f 569 381 384
f 588 884 873
f 879 927 357
f 927 853 357
f 879 357 657
f 657 171 880
f 880 171 380
f 854 855 853
f 854 853 927
f 927 886 854
f 887 854 658
f 887 691 854
f 658 854 878
f 854 886 878
f 874 957 882
f 880 380 451
f 880 451 874
f 956 936 876
f 927 880 883
f 936 886 927
f 936 927 883
f 883 880 874
f 883 874 956
f 874 882 956
f 956 882 957
f 936 955 881
f 881 887 878
f 881 878 885
f 878 886 936
f 881 955 887
f 885 878 936
f 757 588 689
f 689 570 692
f 689 692 761
f 832 896 525
f 832 525 524
f 872 896 832
f 524 893 890
f 872 832 890
f 524 546 893
f 551 894 550
f 550 894 552
f 552 894 551
f 868 550 827
f 825 868 827
f 869 824 988
f 823 871 987
f 897 896 895
f 816 864 650
f 816 650 818
f 650 867 818
f 818 896 897
f 823 864 816
f 820 823 816
f 896 872 871
f 896 871 823
f 820 896 823
f 811 831 896
f 811 896 813
f 815 579 810
f 810 579 811
f 896 818 867
f 896 867 815
f 813 896 815
f 896 820 899
f 816 818 817
f 900 820 816
f 900 816 817
f 895 896 901
f 897 902 818
f 902 895 900
f 813 815 903
f 815 810 904
f 627 906 630
f 906 628 630
f 630 628 907
f 630 907 629
f 629 627 630
f 628 906 627
f 629 907 628
f 613 908 909
f 908 615 909
f 909 615 910
f 909 910 614
f 616 615 908
f 616 908 613
f 614 910 615
f 614 613 909
f 592 911 593
f 593 911 912
f 912 911 594
f 593 912 594
f 911 590 913
f 911 913 594
f 594 913 590
f 848 911 592
f 591 590 911
f 591 911 848
f 597 595 856
f 914 596 595
f 597 914 595
f 598 914 597
f 914 598 596
f 596 856 595
f 598 597 856
f 915 879 657
f 657 880 915
f 879 880 927
f 879 915 880
f 916 917 918
f 916 919 920
f 916 920 917
f 640 638 989
f 625 921 623
f 921 922 623
f 922 624 622
f 623 922 622
f 624 922 921
f 626 625 623
f 626 623 843
f 843 623 639
f 639 623 622
f 624 921 625
f 610 923 612
f 923 924 612
f 612 924 609
f 611 924 923
f 610 612 609
f 609 924 611
f 925 926 603
f 925 603 602
f 601 926 925
f 926 601 603
f 602 601 925
f 600 855 599
f 600 599 854
f 883 956 876
f 883 876 936
f 652 656 650
f 631 633 635
f 633 836 634
f 836 838 928
f 618 620 929
f 618 929 930
f 929 617 930
f 930 617 621
f 929 620 617
f 844 620 619
f 618 930 621
f 617 620 844
f 846 606 931
f 932 715 716
f 933 718 932
f 933 932 716
f 718 852 932
f 717 715 851
f 715 932 851
f 718 933 850
f 850 933 715
f 715 933 716
f 851 932 852
f 694 695 673
f 694 673 693
f 695 694 693
f 658 878 877
f 658 877 934
f 887 934 877
f 887 877 878
f 885 935 881
f 885 936 935
f 936 881 935
f 664 665 679
f 666 937 844
f 844 619 666
f 938 838 844
f 938 844 937
f 939 938 937
f 664 679 938
f 666 619 665
f 698 606 672
f 698 672 704
f 699 619 698
f 619 606 698
f 700 619 699
f 696 665 700
f 700 665 619
f 704 672 702
f 672 671 670
f 702 672 670
f 696 697 665
f 939 667 664
f 939 666 667
f 939 937 666
f 665 664 667
f 938 939 664
f 702 703 940
f 698 940 701
f 940 941 701
f 941 696 700
f 701 941 700
f 703 941 940
f 941 703 696
f 670 703 702
f 699 698 700
f 698 701 700
f 704 702 698
f 702 940 698
f 696 703 697
f 697 703 670
f 561 871 560
f 561 869 871
f 560 871 562
f 871 872 942
f 562 871 942
f 561 552 869
f 830 552 943
f 944 890 830
f 942 890 944
f 942 872 890
f 891 552 892
f 891 52 552
f 394 52 891
f 888 892 890
f 890 552 830
f 892 552 890
f 890 893 888
f 396 394 888
f 567 568 547
f 889 888 893
f 547 568 888
f 547 888 889
f 568 396 888
f 818 819 900
f 819 818 902
f 819 902 900
f 818 900 817
f 810 829 904
f 904 829 809
f 904 809 815
f 552 561 945
f 945 561 560
f 830 943 946
f 942 944 947
f 394 891 888
f 889 893 546
f 686 665 948
f 686 679 665
f 948 685 687
f 687 685 679
f 948 684 685
f 687 679 686
f 949 948 705
f 948 665 705
f 949 684 948
f 710 764 746
f 710 746 713
f 710 713 707
f 710 670 764
f 705 665 697
f 705 697 710
f 710 697 670
f 707 713 712
f 707 712 708
f 708 712 684
f 708 684 949
f 687 688 990
f 948 687 990
f 710 707 711
f 708 949 950
f 708 950 709
f 875 954 381
f 381 954 449
f 875 873 954
f 884 952 873
f 884 955 952
f 1 449 954
f 1 954 873
f 499 873 952
f 955 936 957
f 17 953 451
f 1 873 499
f 955 957 514
f 957 874 451
f 451 953 957
f 957 936 956
f 584 677 578
f 815 867 583
f 586 579 815
f 586 815 583
f 583 866 677
f 583 677 584
f 583 867 866
f 586 578 579
f 661 582 958
f 661 958 660
f 582 581 958
f 660 958 581
f 660 581 662
f 578 586 587
f 588 691 887
f 588 887 959
f 589 884 588
f 959 887 884
f 589 959 884
f 661 679 659
f 659 679 677
f 659 677 960
f 961 838 660
f 660 838 938
f 660 938 679
f 660 679 661
f 663 838 961
f 960 677 838
f 659 960 838
f 659 838 663
f 663 961 962
f 581 663 962
f 961 660 662
f 807 577 559
f 806 580 808
f 808 580 577
f 808 577 807
f 806 579 580
f 806 807 579
f 807 811 579
f 654 655 963
f 897 895 902
f 842 645 643
f 643 648 647
f 643 647 642
f 645 649 644
f 645 644 643
f 643 644 646
f 643 646 648
f 645 842 649
f 842 644 649
f 642 842 643
f 846 931 964
f 846 964 604
f 604 964 608
f 608 605 847
f 608 847 604
f 964 607 608
f 607 606 847
f 607 847 605
f 608 607 605
f 931 606 607
f 931 607 964
f 510 10 508
f 511 19 513
f 513 19 510
f 511 516 20
f 20 19 511
f 506 9 24
f 502 506 521
f 784 966 971
f 785 965 787
f 787 965 775
f 968 967 790
f 787 969 785
f 790 967 787
f 771 790 787
f 783 970 781
f 784 971 782
f 789 783 781
f 972 735 763
f 734 975 973
f 973 975 972
f 974 975 734
f 763 734 973
f 763 973 972
f 971 965 785
f 971 966 965
f 775 966 784
f 965 966 775
f 970 783 971
f 970 971 978
f 781 978 971
f 971 979 782
f 979 971 783
f 782 979 783
f 781 970 978
f 969 967 785
f 785 967 968
f 786 968 790
f 786 785 968
f 967 969 787
f 805 785 786
f 763 977 976
f 736 976 977
f 736 977 725
f 735 972 977
f 763 735 977
f 740 977 972
f 975 974 980
f 740 980 726
f 726 980 974
f 972 975 740
f 740 975 980
f 861 863 655
f 917 920 859
f 859 920 858
f 857 981 860
f 362 918 859
f 865 861 982
f 916 918 362
f 916 362 983
f 916 983 981
f 916 981 857
f 916 857 919
f 859 918 917
f 858 920 857
f 920 919 857
f 860 981 983
f 860 983 362
f 862 865 984
f 863 963 655
f 652 653 656
f 656 653 650
f 653 651 650
f 898 866 650
f 898 650 651
f 653 898 651
f 652 866 898
f 652 898 653
f 654 963 863
f 654 863 862
f 654 862 984
f 654 984 865
f 654 865 982
f 654 982 861
f 654 861 655
f 836 928 985
f 836 985 634
f 634 635 633
f 985 632 631
f 985 631 635
f 634 985 635
f 928 838 985
f 838 632 985
f 814 813 903
f 814 903 815
f 829 814 815
f 829 815 809
f 900 895 901
f 900 901 896
f 900 896 899
f 900 899 820
f 811 813 814
f 829 811 814
f 944 830 986
f 987 822 821
f 987 821 823
f 988 824 821
f 988 821 822
f 987 988 822
f 871 869 988
f 871 988 987
f 639 905 989
f 639 989 638
f 989 641 841
f 989 841 640
f 637 636 841
f 637 841 641
f 989 637 641
f 905 639 637
f 905 637 989
f 639 636 637
f 961 662 962
f 662 581 962
f 661 659 582
f 948 990 991
f 991 686 948
f 990 688 686
f 990 686 991
f 584 951 583
f 583 951 585
f 951 587 585
f 587 586 583
f 585 587 583
f 951 584 587
f 584 578 587
f 949 706 950
f 706 711 707
f 706 707 950
f 950 707 709
f 705 710 711
f 705 711 706
f 949 705 706
f 807 992 808
f 992 806 808
f 807 806 992
f 550 870 993
f 825 827 826
f 826 827 828
f 826 828 870
f 826 870 825
f 993 870 828
f 827 993 828
f 827 550 993
f 891 892 888
f 994 995 517
f 518 994 517
f 518 517 511
f 520 509 995
f 520 995 994
f 520 994 518
f 512 995 503
f 503 995 509
f 511 517 995
f 511 995 512
f 505 520 504
f 504 520 518
f 811 807 559
f 557 811 559
f 557 559 996
f 557 831 811
f 564 554 553
f 564 553 563
f 563 553 565
f 565 553 555
f 555 553 833
f 997 559 549
f 997 549 554
f 997 554 564
f 996 559 997
f 555 833 896
f 555 896 831
f 555 831 557
f 558 557 996
f 562 942 998
f 555 557 999
f 996 997 558
f 565 555 556
f 555 999 556
f 999 565 556
f 943 552 945
f 562 998 560
f 998 945 560
f 945 998 946
f 945 946 943
f 946 998 944
f 946 944 986
f 830 946 986
f 998 942 947
f 998 947 944
f 558 563 999
f 999 563 565
f 557 558 999
f 997 564 563
f 997 563 558
f 794 677 678
f 794 799 677
f 771 776 801
f 801 772 771
f 804 793 772
f 804 772 801
f 796 793 804
f 801 792 796
f 793 797 678
f 794 678 800
f 794 800 799
f 799 800 792
f 792 800 796
f 1000 796 804
f 1000 804 801
f 801 796 1000
f 588 959 589
