<?xml version="1.0" standalone="no"?><!DOCTYPE svg PUBLIC "-//W3C//DTD SVG 1.1//EN" "http://www.w3.org/Graphics/SVG/1.1/DTD/svg11.dtd"><svg t="1775290865308" class="icon" viewBox="0 0 1024 1024" version="1.1" xmlns="http://www.w3.org/2000/svg" p-id="5848" xmlns:xlink="http://www.w3.org/1999/xlink" width="200" height="200"><path d="M304 463.712c0.089-70.61 57.391-127.783 128-127.712 70.72 0 128 57.184 128 127.712v223.52c0 17.673-14.326 32-32 32-17.673 0-32-14.327-32-32V592.32H368v94.944c0 17.673-14.326 32-32 32-17.673 0-32-14.327-32-32V463.712z m64 0.832v63.872h128v-63.872c-0.052-35.298-28.701-63.875-64-63.84-35.36 0-64 28.576-64 63.84z m320-127.712c17.665 0 32 14.304 32 31.936v319.296A31.968 31.968 0 0 1 688 720c-17.663 0-32-14.304-32-31.936V368.768a31.968 31.968 0 0 1 32-31.936z" p-id="5849"></path><path d="M84.417 911.04l60.096-142.72A445.957 445.957 0 0 1 64 512C64 264.576 264.577 64 512 64c247.425 0 448 200.576 448 448S759.426 960 512 960c-53.76 0-105.28-9.472-153.023-26.816L116.833 955.2a32 32 0 0 1-32.416-44.16z m132.8-150.432l-53.12 126.016 203.296-18.464 13.44 4.864C421.665 887.872 465.825 896 512 896c212.064 0 384-171.936 384-384S724.065 128 512 128 128 299.936 128 512c0 81.792 25.504 157.44 68.96 219.648l20.224 28.928 0.032 0.032z" p-id="5850"></path></svg>